<svg width="112" height="112" viewBox="0 0 112 112" fill="none" xmlns="http://www.w3.org/2000/svg">
<path d="M111.842 92.6613C111.759 92.2632 111.664 91.9084 111.617 91.6649C111.219 89.6094 109.768 86.4763 102.357 82.6059C94.6659 78.5898 91.737 79.6181 85.346 76.466C83.2934 75.4536 81.4774 74.3025 79.8776 73.1063C79.1401 72.5549 78.4489 71.9939 77.8016 71.4325C77.6619 70.4853 77.4343 69.563 77.1262 68.6726L73.9557 56.4575L73.9546 56.4577C73.6175 55.1771 73.0169 53.9669 72.197 52.8588C71.831 52.3641 71.4204 51.8903 70.9707 51.4392C71.664 51.547 72.2476 51.4925 72.4973 51.4666C74.1178 51.2984 74.5207 50.5662 75.4038 50.8185C75.6842 50.8987 75.8534 51.0326 75.9883 51.1942C76.2764 51.5393 76.4074 52.0107 77.1267 52.3555C78.1832 52.862 78.7781 52.2652 79.7576 52.7408C80.8535 53.2731 80.402 54.1628 81.5024 54.8844C82.6881 55.6619 83.7128 54.9572 84.6895 55.7697C85.4448 56.3979 84.9943 56.9543 85.8156 57.7253C85.9045 57.8088 87.1044 58.8979 88.6984 58.5595C88.8414 58.5292 89.7827 58.3265 90.3773 57.6427C90.5114 57.4884 90.6281 57.3098 90.7138 57.1029C91.0263 56.3485 90.8034 55.5257 90.3182 55.0174C89.6965 54.3662 89.024 54.629 88.5631 54.0499C88.0932 53.4594 88.601 52.9456 88.5778 52.0684C88.5744 51.9406 88.5599 51.8052 88.5293 51.6606C88.2525 50.3518 87.1333 50.49 86.355 48.828C85.8801 47.8138 86.211 47.579 85.6094 46.3052C85.3137 45.679 85.0233 45.0642 84.4005 44.4899C83.2206 43.4019 82.1985 43.7038 81.2428 42.8985C81.5641 42.8559 81.9202 42.8506 82.3025 42.9288C83.6039 43.1951 83.67 44.1073 85.0723 44.5174C86.3897 44.9028 86.8344 44.2447 87.7866 44.6879C88.8487 45.1822 88.7163 46.1966 89.3559 46.7788C89.475 46.8872 89.6208 46.9807 89.8061 47.053C90.834 47.4539 91.5153 46.5963 92.553 47.0231C93.6675 47.4815 93.3328 48.6566 94.416 49.0136C95.3824 49.3322 96.2498 48.5947 96.8917 49.0649C97.2772 49.3473 97.0534 49.6785 97.4548 50.03C98.0233 50.5278 99.3522 50.6342 100.085 49.9648C100.31 49.7592 100.446 49.5099 100.515 49.258C100.588 48.9877 100.585 48.7142 100.528 48.4878C100.394 47.9514 100.03 47.9298 99.7874 47.4454C99.3087 46.4875 100.362 45.8288 100.093 44.8055C99.9158 44.1314 99.3723 44.0886 98.7792 43.6292C98.5869 43.4802 98.3894 43.2877 98.1974 43.0153C97.2358 41.6511 98.0557 40.62 97.1056 39.9511C96.3102 39.3912 95.3588 39.8485 94.8264 39.1888C94.4908 38.773 94.7967 38.5018 94.5554 37.8453C94.2247 36.9455 93.1565 36.1117 92.0396 36.0302C90.8631 35.9443 90.3774 36.7474 89.6211 36.4634C88.9247 36.2019 89.2227 35.4786 88.3517 34.7466C87.9277 34.3902 87.4358 34.208 86.8687 34.0716C86.8689 34.0717 86.8691 34.0716 86.8693 34.0717C87.8698 34.1515 88.3778 34.4861 88.9078 34.6843C89.2133 34.7985 89.5261 34.8676 89.9448 34.816C91.2877 34.6507 91.4704 33.5239 92.75 33.4948C93.7444 33.4723 93.9527 34.1456 94.9143 34.0402C95.7339 33.9504 96.5568 33.3545 96.8425 32.587C96.9407 32.3231 96.9636 32.0691 96.9405 31.8331C96.8663 31.076 96.313 30.5055 96.2071 30.4001C95.405 29.6015 94.6485 29.9285 93.3902 29.3241C93.3147 29.2878 93.2376 29.2487 93.1584 29.2052C91.5415 28.3193 91.9132 27.3807 90.6297 26.9593C89.1161 26.4623 88.2333 27.6478 86.8283 27.1258C85.4895 26.6284 85.8664 25.394 84.4553 24.8144C83.1442 24.2759 82.4569 25.1928 80.8902 24.7173C79.353 24.2508 79.3341 23.1615 77.9769 22.8467C77.3226 22.695 76.4223 22.7389 75.1876 23.3591C72.1545 20.417 68.0359 18.073 63.2483 16.6249C59.7914 15.5793 55.9866 15 51.9907 15C42.1479 15 33.4623 18.5113 28.2887 23.8632C27.1528 23.2133 26.3958 23.2593 25.8818 23.5041C24.9296 23.9576 25.0088 24.9993 23.9397 25.618C22.8501 26.2486 22.2761 25.4509 21.3762 26.1128C20.4077 26.8251 20.7848 27.9607 19.8614 28.5865C18.8925 29.2432 18.1546 28.2113 17.105 28.8564C16.215 29.4033 16.5632 30.2572 15.4724 31.2852C15.4189 31.3355 15.3667 31.3816 15.3153 31.4247C14.4591 32.1435 13.8855 31.9168 13.375 32.7694C13.3076 32.882 12.9571 33.4888 12.9681 34.2198C12.9715 34.4477 13.0097 34.6875 13.1031 34.9283C13.3745 35.6286 14.019 36.1045 14.6179 36.0977C15.3206 36.0898 15.4134 35.4238 16.1327 35.3331C17.0583 35.2165 17.2861 36.2714 18.2689 36.2776C18.5754 36.2796 18.7951 36.1784 19.0058 36.0349C19.3712 35.786 19.7092 35.4094 20.424 35.2203C20.4242 35.2203 20.4244 35.2203 20.4245 35.2202C20.027 35.4144 19.6877 35.6437 19.4122 36.0317C18.8463 36.8285 19.123 37.4853 18.6429 37.8134C18.1215 38.1698 17.7027 37.4581 16.8613 37.6727C16.0625 37.8765 15.3631 38.7928 15.2012 39.6889C15.0831 40.3427 15.3269 40.567 15.1202 41.0017C14.7924 41.6914 14.0671 41.3623 13.5411 41.9864C12.9127 42.7319 13.5921 43.6236 13.0147 45.034C12.8995 45.3157 12.7734 45.5217 12.6474 45.6855C12.2587 46.1909 11.8703 46.293 11.8 46.9564C11.6933 47.9633 12.5091 48.4733 12.2454 49.4415C12.1121 49.9311 11.851 49.9929 11.8 50.5199C11.7785 50.7424 11.7991 51.0038 11.8753 51.2534C11.9463 51.4862 12.0655 51.7087 12.2454 51.8796C12.8312 52.4358 13.7808 52.1843 14.1485 51.6452C14.4081 51.2644 14.2184 50.9735 14.4724 50.6605C14.8954 50.1394 15.584 50.7454 16.254 50.3323C17.0049 49.8694 16.6633 48.7857 17.4282 48.2224C18.1404 47.698 18.705 48.4396 19.4122 47.9411C19.5398 47.8512 19.637 47.7455 19.7137 47.6286C20.1254 47.0008 19.9434 46.0476 20.6674 45.456C21.3166 44.9256 21.6935 45.5035 22.611 44.9872C23.5876 44.4375 23.5575 43.5594 24.4736 43.1586C24.7427 43.0408 25 43.0056 25.2354 43.0101C24.6147 43.8865 23.8516 43.7136 23.0932 44.8851C22.6929 45.5035 22.5359 46.123 22.3759 46.754C22.0506 48.0376 22.3093 48.2243 22.0531 49.2459C21.6334 50.92 20.8142 50.9143 20.7261 52.1946C20.7164 52.336 20.7175 52.4669 20.7259 52.5893C20.784 53.4291 21.1941 53.8622 20.9055 54.4788C20.6224 55.0835 20.1148 54.9086 19.7219 55.6002C19.4152 56.14 19.3246 56.9505 19.6143 57.6352C19.6938 57.823 19.7931 57.9803 19.9031 58.1124C20.3903 58.698 21.0866 58.7853 21.1924 58.7981C22.3711 58.9412 23.1438 57.7664 23.2008 57.6767C23.7276 56.8482 23.3551 56.3681 23.8464 55.6833C24.4817 54.7976 25.281 55.3546 26.07 54.4788C26.8024 53.666 26.4008 52.8678 27.146 52.2361C27.812 51.6717 28.292 52.1742 29.011 51.5716C29.5005 51.1614 29.5548 50.6967 29.7332 50.3348C29.8167 50.1654 29.9274 50.0185 30.1228 49.9104C30.7384 49.5699 31.0914 50.2234 32.2747 50.2011C32.2933 50.2008 32.3145 50.2003 32.338 50.1996C32.8338 50.5297 33.3459 50.8478 33.8739 51.1525C35.7858 52.2561 37.903 53.1872 40.1769 53.9159C40.1736 53.9325 40.1704 53.9492 40.1671 53.9659C40.1244 54.1826 40.0767 54.4248 40.031 54.6839C39.8843 55.5153 39.7581 56.5206 39.8838 57.4156C39.263 57.915 38.5561 58.6936 38.2897 59.7872C37.9181 61.3125 38.5658 62.7841 38.9931 63.7548C39.1467 64.104 39.3015 64.394 39.43 64.6164C39.4602 64.6688 39.4895 64.7186 39.5164 64.7632C39.5164 65.1562 39.7039 65.5046 39.9935 65.7265C39.2393 66.2491 38.6171 66.9625 38.1375 67.7388C37.6916 68.4608 37.3048 69.2706 37.1362 70.1042C37.0319 70.62 36.9875 71.147 36.9251 71.6689C36.917 71.7361 36.9088 71.8033 36.9003 71.8705C36.8987 71.8828 36.8971 71.8951 36.8955 71.9075C36.87 72.0777 36.8454 72.2479 36.8168 72.4177C36.7562 72.7774 36.6834 73.1349 36.6111 73.4924C36.531 73.8883 36.4473 74.2839 36.3522 74.6766C35.6214 74.7222 35.0126 75.2945 34.9434 76.0464C34.9239 76.259 34.9499 76.4651 35.0126 76.6558C35.0229 76.9949 35.1204 77.2662 35.1832 77.6326C35.0631 77.8219 34.936 78.0066 34.8023 78.1871C34.8009 78.1891 34.8001 78.1902 34.7988 78.192C34.795 78.1965 34.7914 78.2009 34.7865 78.2069C34.7394 78.2648 34.6926 78.3228 34.6445 78.3799C34.5424 78.501 34.4372 78.6195 34.3288 78.7352C34.2332 78.8373 34.1351 78.9372 34.035 79.035C34.0348 79.0347 34.0344 79.0342 34.0342 79.0339C34.0333 79.0325 34.0325 79.0311 34.0316 79.0296C33.8876 78.7891 33.7668 78.5065 33.7039 78.211C33.6529 77.9714 33.6355 77.7688 33.6302 77.5889C33.6585 77.4976 33.6781 77.4022 33.6872 77.3032C33.7163 76.9877 33.6365 76.688 33.4805 76.4386C33.4784 76.4347 33.4768 76.4309 33.4746 76.427C33.2358 76.0055 32.7633 75.7154 32.2622 75.7836C31.5661 75.8017 30.9779 76.3373 30.9125 77.0478C30.8571 77.6499 31.1943 78.1963 31.7127 78.4376C31.9566 78.6682 32.2532 78.8589 32.5054 79.2534C32.6724 79.5148 32.7611 79.7745 32.7984 80.0551C32.0699 80.5585 31.2875 80.9829 30.479 81.3432C30.4049 81.3763 30.0503 81.5235 30.3509 81.401C30.2548 81.4402 30.1593 81.4805 30.063 81.5191C29.8818 81.5917 29.6994 81.6614 29.5162 81.7287C29.1728 81.8548 28.8266 81.9758 28.4778 82.0858C27.9881 82.2402 27.4873 82.3446 26.9928 82.4802C26.4356 82.633 25.9014 82.878 25.4031 83.1684C24.2871 83.8189 23.3531 84.7062 22.5692 85.7249C22.1495 86.2702 21.8092 86.8537 21.4728 87.4514C21.4074 87.5676 21.3358 87.6801 21.2581 87.7884C21.2543 87.7936 21.2505 87.7986 21.2467 87.8038C21.2014 87.8584 21.1558 87.9126 21.1083 87.9654C20.9966 88.0893 20.8782 88.2072 20.7551 88.3198C20.6894 88.38 20.6222 88.4386 20.554 88.4959C20.5176 88.5264 20.4506 88.5778 20.4034 88.6138C20.0741 88.852 19.7362 89.0737 19.3817 89.2738C18.8951 89.5484 18.3906 89.7904 17.8777 90.0115C17.8669 90.0162 17.856 90.0208 17.8451 90.0254C17.7729 90.0552 17.7006 90.0852 17.6281 90.1145C17.4743 90.1765 17.3199 90.2369 17.1648 90.2957C16.8238 90.4252 16.4801 90.5474 16.1344 90.6638C14.3746 91.2563 12.5683 91.7077 10.754 92.0981C8.21045 92.6453 5.64056 93.0671 3.06458 93.4283C2.87729 93.4545 2.68994 93.4805 2.50254 93.5061C2.44837 93.5135 2.3942 93.5208 2.34003 93.5281C2.33565 93.5287 2.31527 93.5315 2.29586 93.5341C2.27695 93.5366 2.2577 93.5392 2.25352 93.5398C2.19848 93.5471 2.14344 93.5545 2.08839 93.5617C1.69509 93.6138 1.3016 93.6644 0.907964 93.7138C0.438937 93.7728 -0.0229515 94.0888 0.000884476 94.6209C0.0206235 95.0616 0.403708 95.5914 0.907964 95.528C3.7732 95.168 6.63343 94.7524 9.46973 94.2067C11.4647 93.8229 13.4521 93.3786 15.3999 92.7982C16.8 92.3811 18.1869 91.8906 19.5037 91.254C20.38 90.8303 21.2215 90.3231 21.954 89.6779C22.516 89.1829 22.9048 88.5931 23.2701 87.9482C23.4581 87.6162 23.6613 87.293 23.8823 86.9819C23.9366 86.9056 23.9928 86.8307 24.0486 86.7556C24.0575 86.7439 24.0661 86.7319 24.075 86.7209C24.1202 86.665 24.1651 86.609 24.2111 86.5538C24.3889 86.3403 24.5759 86.1344 24.7719 85.9374C24.9776 85.7308 25.1933 85.5339 25.4186 85.3487C25.4337 85.3363 25.4998 85.284 25.5365 85.2546C25.5767 85.2248 25.6409 85.1768 25.6531 85.168C25.7824 85.0746 25.9144 84.985 26.049 84.8993C26.3144 84.7301 26.5899 84.5751 26.8745 84.4404C26.8888 84.4336 26.9502 84.4066 26.9878 84.3898C27.0109 84.3806 27.0326 84.372 27.042 84.3684C27.1495 84.3282 27.2584 84.2922 27.3685 84.2599C27.8485 84.1187 28.3404 84.0239 28.8196 83.8786C29.187 83.7671 29.5508 83.6406 29.9118 83.5097C30.7908 83.191 31.6565 82.822 32.4793 82.3768C32.517 82.3565 32.5541 82.3346 32.5916 82.3139C32.5699 82.4725 32.5485 82.6387 32.5285 82.8139C32.448 83.5192 32.3686 84.1155 32.3164 84.6404C32.2094 85.7156 32.2173 86.49 32.5687 87.2781C32.6198 87.3928 33.5397 89.381 35.2785 89.599C35.9146 89.6788 36.5409 89.5065 37.1107 89.1835L37.1612 89.3437L46.5942 85.9235C47.2711 86.4899 47.9947 87.012 48.7596 87.4838C48.7491 87.5801 48.7389 87.6751 48.7297 87.7673C48.6102 88.9684 48.619 89.8335 49.0115 90.7138C49.0687 90.842 50.0964 93.0631 52.0389 93.3067C52.7494 93.3958 53.4491 93.2033 54.0856 92.8425L54.1421 93.0214L61.7005 90.2809C65.5929 89.833 69.1101 88.3075 71.8698 86.048C79.075 90.3226 84.4132 91.0967 88.1644 90.8596C89.8593 90.7525 91.5569 90.7836 93.2554 90.8499C95.5418 91.3953 97.8815 91.7376 100.209 91.9702C100.848 92.034 101.488 92.0878 102.128 92.1338C102.602 92.1678 103.056 91.6922 103.035 91.2267C103.034 91.194 103.031 91.162 103.027 91.1307C104.617 91.274 105.992 91.6764 106.886 92.7721C107.593 93.6377 107.946 94.8699 109.302 95.3891C109.397 95.4255 110.762 95.9294 111.516 95.2884C112.168 94.7344 112.035 93.5816 111.842 92.6613ZM40.9105 67.2923C40.9128 67.2926 40.8742 67.3209 40.8467 67.3412C40.8711 67.3196 40.9042 67.2916 40.9105 67.2923ZM56.0374 62.5046C55.9764 62.655 55.9153 62.8047 55.8538 62.9535C55.9152 62.8046 55.9765 62.655 56.0374 62.5046ZM55.8332 63.0032C55.7761 63.1412 55.7189 63.2788 55.6614 63.4154C55.7189 63.2787 55.7761 63.1412 55.8332 63.0032ZM45.453 65.0146C45.4354 64.9329 45.4182 64.8515 45.401 64.7701C45.4181 64.8514 45.4356 64.933 45.4531 65.0145L45.453 65.0146ZM44.5069 59.7397C44.5964 60.3584 44.6947 60.9865 44.8027 61.6238C44.9218 62.3274 45.052 63.0413 45.1956 63.7663C45.2454 64.0174 45.2969 64.2699 45.3495 64.5234C45.0061 62.8749 44.7282 61.2775 44.5062 59.7398C44.5064 59.7398 44.5067 59.7397 44.5069 59.7397ZM55.1181 64.6756C55.0224 64.8922 54.9265 65.1077 54.8301 65.3208C54.9265 65.1077 55.0224 64.8923 55.1181 64.6756ZM55.4618 63.8858C55.3679 64.1051 55.2734 64.3223 55.1786 64.5381C55.2733 64.3222 55.3679 64.1051 55.4618 63.8858ZM56.2342 62.0145C56.2807 61.8977 56.327 61.7806 56.3732 61.663C56.327 61.7808 56.2807 61.8977 56.2342 62.0145ZM41.9092 64.477C41.8931 64.4108 41.8729 64.3462 41.8464 64.2847C41.8465 64.2846 41.8465 64.2846 41.8465 64.2845C41.8841 64.213 41.9107 64.1268 41.9422 64.0447C42.0092 64.312 42.0596 64.5824 42.0932 64.8545C42.0414 64.8645 41.99 64.8764 41.9384 64.8878C41.9426 64.8469 41.9447 64.8053 41.9447 64.7633C41.9447 64.6644 41.9316 64.5689 41.9092 64.477ZM38.606 72.6529C38.6948 72.0792 38.7704 71.4994 38.8275 70.9213C38.8343 70.8758 38.8413 70.8303 38.849 70.7849C38.8676 70.6743 38.8889 70.5641 38.9139 70.4548C38.9631 70.2393 39.0272 70.0275 39.105 69.8206C39.1116 69.8031 39.1309 69.7554 39.1445 69.7213C39.1589 69.6889 39.1748 69.653 39.1814 69.6387C39.2164 69.5632 39.2527 69.4885 39.2893 69.4138C39.3614 69.2666 39.4361 69.1207 39.5154 68.9773C39.6123 68.8021 39.7156 68.6305 39.8261 68.4635C39.8882 68.3698 39.9534 68.2786 40.0191 68.1874C40.0223 68.183 40.0243 68.1801 40.027 68.1764C40.0616 68.134 40.0957 68.0914 40.1311 68.0496C40.3029 67.8464 40.4884 67.6546 40.6877 67.4783C40.731 67.4401 40.7749 67.4025 40.8194 67.3657C40.8193 67.3658 40.8269 67.3588 40.8374 67.3495C40.8397 67.3479 40.8417 67.3465 40.8446 67.3445C40.9697 67.2578 41.0924 67.1701 41.223 67.0916C41.3492 67.0157 41.4792 66.9459 41.6121 66.8825C41.6222 66.8777 41.6324 66.873 41.6427 66.8684C41.6971 66.8695 41.8357 66.7912 41.8843 66.7746C41.9438 66.7542 42.0037 66.7356 42.064 66.7177C41.9892 67.2003 41.8624 67.6775 41.6828 68.1407C41.0133 69.8677 40.6493 71.7232 40.6493 73.6552C40.6493 75.2292 40.8918 76.752 41.3433 78.1963C41.3108 78.2249 41.2782 78.2536 41.2452 78.2826C41.0393 77.9031 40.6538 77.6301 40.1915 77.5875C39.5457 77.5281 39.0125 77.9545 38.7872 78.5371C38.7525 78.6269 38.7702 78.8281 38.6277 79.0309C38.6147 79.0494 38.6008 79.0679 38.585 79.0863C37.6106 79.8662 37.3249 79.8268 37.1226 79.7285C36.9569 79.648 36.8964 79.3067 36.9238 78.9137C36.9445 78.6169 37.0152 78.2907 37.129 78.0251C37.2587 77.7226 37.3736 77.4885 37.4717 77.2945C37.7371 77.0499 37.9175 76.7112 37.9532 76.3234C37.968 76.1627 37.9568 76.0057 37.9235 75.8562C38.237 74.811 38.441 73.7195 38.606 72.6529Z" fill="#C1B5FF"/>
<path d="M107.602 87.3304C102.234 82.2783 95.5538 80.7709 91.9873 80.0086C89.7524 79.5309 89.8239 79.739 88.5505 79.3602C84.7762 78.2373 81.9578 75.7571 79.8776 73.1063C77.8884 71.619 76.2337 70.062 74.878 68.615L69.7632 79.3561C72.0068 78.8307 74.8898 79.2494 75.8042 80.5941C76.5194 81.6456 75.6024 82.6336 76.1421 84.3779C76.9842 87.0996 80.343 88.3333 82.1556 88.9725C86.0971 90.3623 88.1519 89.6553 93.3044 89.9185C95.8482 90.0484 100.4 90.281 102.972 91.1257C104.585 91.2647 105.982 91.6639 106.886 92.7721C107.593 93.6377 107.946 94.8699 109.302 95.3891C109.397 95.4255 110.762 95.9294 111.516 95.2885C112.168 94.7345 112.035 93.5816 111.842 92.6614C110.354 90.1454 108.765 88.4248 107.602 87.3304Z" fill="#FF2D77"/>
<path d="M82.1555 88.9725C80.3429 88.3333 76.9841 87.0995 76.142 84.3778C75.6023 82.6335 76.5193 81.6456 75.8041 80.594C74.8896 79.2494 72.0067 78.8306 69.7631 79.356L67.832 83.4112C77.1194 90.0152 83.7436 91.139 88.1643 90.8596C92.0156 90.6162 95.8806 91.0864 99.7396 91.0609C100.858 91.0535 101.958 91.0383 102.972 91.1257C100.4 90.281 95.8481 90.0483 93.3043 89.9184C88.1518 89.6553 86.097 90.3622 82.1555 88.9725Z" fill="#E62769"/>
<path d="M102.357 82.606C94.6657 78.5899 91.7369 79.6182 85.3459 76.4661C83.2933 75.4537 81.4773 74.3025 79.8774 73.1063C81.9577 75.7571 84.776 78.2374 88.5503 79.3602C89.8237 79.739 89.7522 79.5309 91.9871 80.0086C95.5536 80.7709 102.233 82.2784 107.602 87.3304C108.765 88.4248 110.354 90.1454 111.842 92.6614C111.758 92.2633 111.664 91.9085 111.617 91.6649C111.219 89.6094 109.768 86.4764 102.357 82.606Z" fill="#FF5E97"/>
<path d="M74.2023 72.0631C78.3904 75.9699 82.1177 78.1952 84.6671 79.486C91.5843 82.9883 94.6499 82.0516 101.523 86.151C106.497 89.118 110.471 92.9373 110.286 93.3248C110.152 93.6047 107.887 92.0143 104.918 90.7281C98.9562 88.1454 94.1383 88.5153 91.5323 88.4537C86.8756 88.3436 80.1135 86.6387 71.0879 79.4398L74.2023 72.0631Z" fill="#E62769"/>
<path d="M75.6071 74.4584C79.3829 77.4917 82.763 79.2369 85.0784 80.2543C91.3609 83.0147 94.1841 82.3404 100.416 85.5554C104.927 87.8825 108.509 90.8462 108.333 91.1393C108.206 91.351 106.156 90.1088 103.456 89.0895C98.034 87.0427 93.6143 87.262 91.2278 87.1811C86.9632 87.0366 80.7947 85.6487 72.6384 80.0423L75.6071 74.4584Z" fill="#C1B5FF"/>
<path d="M45.2398 61.5588L44.8025 61.6238C44.9217 62.3274 45.0519 63.0413 45.1955 63.7663C45.3194 64.3922 45.4518 65.025 45.5954 65.666C45.7649 66.4228 45.9426 67.1624 46.1269 67.8855C48.3486 66.2843 51.2499 65.3149 54.4244 65.3149C54.5602 65.3149 54.6952 65.3172 54.8299 65.3208C55.0424 64.8511 55.2532 64.3725 55.4618 63.8856C55.7217 63.2788 55.978 62.658 56.2302 62.0243L55.6547 61.8999C52.232 61.1595 48.7037 61.0439 45.2398 61.5588Z" fill="#DDE8FF"/>
<path d="M65.9748 48.0962C63.4774 47.0031 60.5671 46.3756 57.4591 46.3756C51.7576 46.3756 46.7199 48.4859 43.6807 51.7126H61.6654L65.9748 48.0962Z" fill="#DDE8FF"/>
<path d="M58.9178 54.0182L61.1504 52.1447L61.6653 51.7125H43.6806C43.1777 52.2464 42.7294 52.8107 42.342 53.4013C41.9777 53.9567 41.6664 54.5348 41.4146 55.1326L43.9306 54.5377C44.0999 56.7369 44.3768 59.1101 44.8026 61.6238L45.2399 61.5588C48.7037 61.0439 52.2321 61.1595 55.6548 61.8998L56.2302 62.0243C56.3337 61.7642 56.4367 61.5025 56.5386 61.2378C57.5172 58.6965 58.2954 56.2746 58.9178 54.0182Z" fill="#B0BCD6"/>
<path d="M76.5625 77.1279C78.885 79.1345 81.0023 80.3046 82.489 80.9983C85.7956 82.5413 87.4251 82.4007 93.2536 84.264C95.7312 85.056 99.6302 86.422 99.543 86.7435C99.4854 86.9561 97.7162 86.5959 93.4955 85.8968C86.3051 84.7059 86.3504 84.9082 84.8476 84.5059C82.418 83.8554 78.9348 82.4256 75.1111 78.8817L76.5625 77.1279Z" fill="#D4CCFF"/>
<path d="M77.1786 78.2579C77.7682 78.7939 78.6454 79.5331 79.789 80.292C84.9989 83.7493 90.2779 83.9904 90.2306 84.2924C90.1988 84.4956 87.7826 84.5507 85.1115 83.8855C80.7635 82.8028 77.8362 80.3333 76.3311 78.8342L77.1786 78.2579Z" fill="#EAE6FF"/>
<path d="M41.1515 79.0699C40.9808 80.0998 40.9914 80.9448 41.0354 81.5344C41.0924 82.2969 41.252 82.9275 41.5321 84.1662C41.5339 84.1743 41.5358 84.1825 41.5376 84.1906C41.8304 85.4812 43.1372 86.2694 44.4187 85.9393C46.0962 85.5072 47.8883 84.9584 49.7619 84.2587C50.7677 83.8831 51.7225 83.4912 52.628 83.0916C52.9977 82.7442 53.3483 82.3409 53.6483 81.8761C54.6931 80.2572 54.6545 78.1616 53.7672 76.5562C52.6157 75.8067 50.9478 74.7912 48.7837 74.8928C47.1124 74.9713 45.7985 75.6855 44.0244 76.65C41.207 78.1815 39.778 79.7981 39.7601 79.7782C39.7538 79.7711 39.9187 79.5474 40.2181 79.1792C40.079 79.2996 39.9373 79.4218 39.7901 79.5481C37.9073 81.1626 36.3103 82.4338 35.2434 83.2643L36.3845 86.8817C36.4394 85.2874 36.4867 84.0343 36.4867 84.0343L41.1515 79.0699Z" fill="#57626F"/>
<path d="M49.3737 84.9157C49.7474 84.8566 51.3092 84.3306 52.628 83.0916C51.7226 83.4912 50.7677 83.8831 49.762 84.2588C47.8883 84.9585 46.0963 85.5072 44.4188 85.9393C43.1373 86.2694 41.8304 85.4812 41.5376 84.1907C41.5358 84.1825 41.534 84.1744 41.5321 84.1662C41.252 82.9276 41.0925 82.2969 41.0355 81.5345C40.9914 80.9448 40.9808 80.0999 41.1515 79.0699L36.4868 84.0343C36.4868 84.0343 36.4394 85.2875 36.3845 86.8818L37.1611 89.3437L49.3737 84.9157Z" fill="#4A535E"/>
<path d="M44.0244 76.65C45.7986 75.6855 47.1124 74.9713 48.7837 74.8928C50.9479 74.7911 52.6158 75.8067 53.7672 76.5561C53.3822 75.8596 52.8383 75.2548 52.1524 74.8222C50.3045 73.6566 47.8466 74.2365 47.0403 74.4268C44.7181 74.9747 43.6948 76.1712 40.2181 79.1792C39.9187 79.5474 39.7538 79.7711 39.7602 79.7781C39.7781 79.7981 41.2071 78.1815 44.0244 76.65Z" fill="#6C798A"/>
<path d="M50.6676 81.2087C52.4445 80.092 53.1957 78.0898 52.3453 76.7366C51.495 75.3834 49.3651 75.1917 47.5881 76.3084C45.8111 77.4251 45.06 79.4273 45.9103 80.7805C46.7607 82.1337 48.8906 82.3254 50.6676 81.2087Z" fill="#6C798A"/>
<path d="M50.1533 79.7575C51.2783 79.0505 51.7538 77.783 51.2155 76.9264C50.6771 76.0697 49.3288 75.9484 48.2039 76.6553C47.0789 77.3622 46.6034 78.6298 47.1417 79.4864C47.6801 80.343 49.0284 80.4644 50.1533 79.7575Z" fill="#8696AB"/>
<path d="M35.0261 88.2547C36.3657 88.5408 37.5611 87.4231 38.0285 86.9862C38.8863 86.1841 39.3634 85.2143 39.6284 84.3255C39.6346 84.1433 39.6417 83.9413 39.6498 83.7181C39.6726 83.0929 39.6967 82.8571 39.7219 82.5237C39.7864 81.6718 39.8382 81.3106 40.0717 80.902C40.4965 80.1586 41.0304 80.1181 41.2248 79.5903C41.3196 79.4272 41.3824 79.2423 41.4009 79.0421C41.4686 78.3064 40.9271 77.6552 40.1914 77.5875C39.5456 77.528 39.0124 77.9544 38.7871 78.5371C38.7524 78.6268 38.7701 78.828 38.6276 79.0308C38.5976 79.1656 38.5489 79.3074 38.4719 79.4485C38.1385 80.0593 37.372 80.4886 37.0463 80.2808C36.8613 80.1628 36.8595 79.8655 36.8575 79.5407C36.8565 79.3859 36.8684 79.1707 36.9237 78.9136C36.9444 78.6168 37.0151 78.2907 37.1289 78.0251C37.2586 77.7225 37.3735 77.4884 37.4716 77.2944C37.737 77.0498 37.9174 76.7111 37.9531 76.3233C38.0296 75.4922 37.4178 74.7564 36.5867 74.6799C35.7556 74.6034 35.0198 75.2152 34.9433 76.0463C34.9238 76.2589 34.9498 76.465 35.0125 76.6557C35.0237 77.0215 35.1367 77.3069 35.1977 77.7195C35.3059 78.0535 35.3991 78.4654 35.419 78.9426C35.4355 79.3374 35.4582 79.8806 35.2268 79.9848C35.0443 80.067 34.7616 79.8502 34.5161 79.6016C34.3547 79.4806 34.1824 79.2804 34.0341 79.0338C34.0332 79.0327 34.032 79.031 34.0313 79.03L34.0315 79.0296C33.8875 78.7891 33.7667 78.5064 33.7038 78.211C33.6528 77.9713 33.6354 77.7687 33.6301 77.5888C33.6584 77.4975 33.678 77.4022 33.6872 77.3032C33.7162 76.9877 33.6364 76.6879 33.4804 76.4385C33.4783 76.4346 33.4767 76.4308 33.4745 76.4269C33.2357 76.0054 32.7632 75.7154 32.2621 75.7836C31.5661 75.8016 30.9778 76.3373 30.9124 77.0477C30.857 77.6498 31.1942 78.1962 31.7126 78.4375C31.9565 78.6681 32.2531 78.8588 32.5053 79.2534C33.0797 80.1522 32.732 81.0291 32.5284 82.8138C32.4479 83.5191 32.3685 84.1154 32.3163 84.6404C32.4417 85.1514 32.6326 85.6761 32.913 86.1947C33.2988 86.9086 33.896 88.0133 35.0261 88.2547Z" fill="#C1B5FF"/>
<path d="M32.5687 87.278C32.6199 87.3928 33.5398 89.3809 35.2786 89.599C37.4538 89.8718 39.516 87.1997 39.5875 85.6187C39.5923 85.5127 39.6022 85.1018 39.6286 84.3256C39.3636 85.2143 38.8864 86.1842 38.0286 86.9862C37.5613 87.4231 36.3658 88.5408 35.0262 88.2547C33.8961 88.0133 33.299 86.9086 32.9131 86.1948C32.6328 85.6761 32.4418 85.1514 32.3164 84.6404C32.2095 85.7156 32.2173 86.49 32.5687 87.278Z" fill="#A594FF"/>
<path d="M34.8678 79.7215C34.7716 79.7474 34.6476 79.7002 34.5161 79.6017C34.7616 79.8503 35.0442 80.0671 35.2267 79.9849C35.4582 79.8807 35.4355 79.3375 35.419 78.9427C35.3991 78.4655 35.3058 78.0536 35.1976 77.7196C35.2328 77.9577 35.2508 78.238 35.2215 78.6013C35.1879 79.019 35.1371 79.6492 34.8678 79.7215Z" fill="#A594FF"/>
<path d="M34.0341 79.0339C34.0332 79.0325 34.0324 79.0311 34.0315 79.0297L34.0312 79.0301C34.032 79.0311 34.0332 79.0328 34.0341 79.0339Z" fill="#A594FF"/>
<path d="M36.8575 79.5408C36.8595 79.8656 36.8613 80.1629 37.0463 80.2809C37.372 80.4886 38.1385 80.0594 38.4719 79.4486C38.5489 79.3075 38.5976 79.1657 38.6276 79.0309C38.6146 79.0494 38.6007 79.0679 38.5849 79.0863C37.6105 79.8663 37.3248 79.8268 37.1225 79.7286C36.9568 79.6481 36.8963 79.3067 36.9237 78.9137C36.8684 79.1708 36.8565 79.386 36.8575 79.5408Z" fill="#A594FF"/>
<path d="M40.0996 79.7663C40.6063 79.7663 41.017 79.3555 41.017 78.8488C41.017 78.3421 40.6063 77.9314 40.0996 77.9314C39.5929 77.9314 39.1821 78.3421 39.1821 78.8488C39.1821 79.3555 39.5929 79.7663 40.0996 79.7663Z" fill="#D4CCFF"/>
<path d="M40.0374 79.2417C40.3325 79.2417 40.5718 79.0025 40.5718 78.7073C40.5718 78.4121 40.3325 78.1729 40.0374 78.1729C39.7422 78.1729 39.5029 78.4121 39.5029 78.7073C39.5029 79.0025 39.7422 79.2417 40.0374 79.2417Z" fill="#EAE6FF"/>
<path d="M36.4323 77.2966C37.048 77.2966 37.5472 76.7974 37.5472 76.1817C37.5472 75.5659 37.048 75.0668 36.4323 75.0668C35.8165 75.0668 35.3174 75.5659 35.3174 76.1817C35.3174 76.7974 35.8165 77.2966 36.4323 77.2966Z" fill="#D4CCFF"/>
<path d="M36.2723 76.6705C36.6619 76.6705 36.9778 76.3547 36.9778 75.9651C36.9778 75.5755 36.6619 75.2596 36.2723 75.2596C35.8827 75.2596 35.5669 75.5755 35.5669 75.9651C35.5669 76.3547 35.8827 76.6705 36.2723 76.6705Z" fill="#EAE6FF"/>
<path d="M33.2909 77.2091C33.3364 76.7146 32.9136 76.2714 32.3466 76.2192C31.7795 76.167 31.283 76.5256 31.2374 77.0201C31.1919 77.5146 31.6147 77.9578 32.1818 78.01C32.7488 78.0622 33.2454 77.7037 33.2909 77.2091Z" fill="#D4CCFF"/>
<path d="M32.6723 76.9956C32.6997 76.6981 32.4454 76.4314 32.1042 76.4C31.763 76.3686 31.4642 76.5843 31.4368 76.8819C31.4094 77.1794 31.6638 77.4461 32.005 77.4775C32.3462 77.5089 32.645 77.2932 32.6723 76.9956Z" fill="#EAE6FF"/>
<path d="M37.6992 84.568C37.8579 82.8446 37.1495 81.3705 36.1171 81.2755C35.0847 81.1805 34.1192 82.5005 33.9606 84.2239C33.8019 85.9473 34.5103 87.4214 35.5427 87.5164C36.5751 87.6114 37.5406 86.2914 37.6992 84.568Z" fill="#D4CCFF"/>
<path d="M36.9664 83.8716C37.0644 82.8062 36.6265 81.8949 35.9883 81.8361C35.35 81.7774 34.7532 82.5934 34.6551 83.6588C34.557 84.7242 34.9949 85.6355 35.6332 85.6943C36.2714 85.753 36.8683 84.937 36.9664 83.8716Z" fill="#EAE6FF"/>
<path d="M17.3765 29.6413C18.0664 29.1512 18.6279 29.9106 19.4776 29.6413C20.4455 29.3344 20.2722 28.173 21.4139 27.399C22.5667 26.6176 23.8882 27.0255 24.0094 27.0651C25.5405 27.5651 25.7973 29.1414 26.4401 29.0688C27.1969 28.9832 28.0833 26.6578 28.35 24.3292L29.3774 32.2747C27.7608 34.7663 26.7256 35.12 26.0759 34.9733C25.128 34.7593 24.7468 33.4222 23.9397 33.579C23.2008 33.7226 23.2183 34.9017 22.2307 35.2882C21.5454 35.5564 21.3486 34.9758 20.424 35.2204C19.7091 35.4095 19.3711 35.7861 19.0057 36.035C18.7789 36.041 18.5353 36.0155 18.2828 35.9386C18.1964 35.9122 18.1303 35.8864 17.2941 35.4138C15.7949 34.5666 15.6682 34.4579 15.399 34.5074C14.7034 34.6351 14.6159 35.5316 14.0806 35.5092C13.5325 35.4863 13.2599 34.5312 12.968 34.2198C12.957 33.4889 13.3075 32.882 13.3749 32.7695C13.8854 31.9168 14.459 32.1435 15.3152 31.4247C15.6668 31.3826 16.2118 31.0737 16.5937 30.6908C17.0747 30.2087 16.9955 29.9119 17.3765 29.6413Z" fill="#FF2D77"/>
<path d="M17.1049 28.8563C18.1544 28.2113 18.8923 29.2432 19.8613 28.5865C20.7847 27.9607 20.4076 26.825 21.3761 26.1127C22.276 25.4509 22.85 26.2485 23.9396 25.6179C25.0087 24.9993 24.9295 23.9575 25.8817 23.504C26.3959 23.2591 27.1533 23.2131 28.2898 23.8638L28.35 24.3291C28.0833 26.6577 27.1968 28.9832 26.4401 29.0687C25.7973 29.1414 25.5405 27.565 24.0094 27.065C23.8882 27.0254 22.5666 26.6175 21.4139 27.399C20.2722 28.1729 20.4455 29.3343 19.4776 29.6412C18.6278 29.9105 18.0664 29.1511 17.3764 29.6412C16.9955 29.9118 17.0747 30.2087 16.5937 30.6908C16.2117 31.0736 15.6667 31.3825 15.3152 31.4247C15.3666 31.3815 15.4188 31.3355 15.4723 31.2851C16.5631 30.2572 16.2149 29.4032 17.1049 28.8563Z" fill="#E62769"/>
<path d="M14.0806 35.5092C14.6159 35.5316 14.7034 34.6351 15.3989 34.5074C15.6682 34.458 15.7949 34.5666 17.2941 35.4138C18.1303 35.8864 18.1964 35.9123 18.2828 35.9386C18.5353 36.0155 18.7789 36.0411 19.0057 36.035C18.795 36.1785 18.5753 36.2797 18.2689 36.2777C17.286 36.2714 17.0582 35.2165 16.1326 35.3332C15.4133 35.4238 15.3205 36.0899 14.6178 36.0978C14.0189 36.1045 13.3745 35.6287 13.103 34.9284C13.0096 34.6876 12.9715 34.4477 12.968 34.2198C13.2599 34.5312 13.5325 35.4863 14.0806 35.5092Z" fill="#FF82AD"/>
<path d="M26.1712 33.1783C24.7555 32.8181 22.5907 32.4978 20.0132 33.023C18.6996 33.2906 17.5521 33.7221 16.5926 34.1855C16.2066 34.3719 15.8864 33.7564 16.1633 33.3603C16.5576 32.7961 17.0017 32.2374 17.5022 31.7022C21.937 26.9592 27.5311 27.5422 29.28 27.8176L26.1712 33.1783Z" fill="#E62769"/>
<path d="M25.7772 32.7173C24.5208 32.4324 22.5997 32.1791 20.3122 32.5944C19.1464 32.806 18.128 33.1473 17.2765 33.5138C16.9339 33.6612 16.6498 33.1744 16.8955 32.8611C17.2454 32.4149 17.6396 31.9732 18.0837 31.5499C22.0194 27.799 26.9841 28.26 28.5362 28.4778L25.7772 32.7173Z" fill="#C1B5FF"/>
<path d="M25.4881 32.0953C24.7846 31.7948 23.7567 31.4591 22.4901 31.3905C21.3904 31.331 20.443 31.4908 19.7112 31.6918C19.569 31.7309 19.486 31.5112 19.6076 31.4173C20.0455 31.0789 20.5663 30.74 21.1725 30.4508C23.2776 29.4467 25.2011 29.6209 26.1869 29.7983L25.4881 32.0953Z" fill="#D4CCFF"/>
<path d="M25.3337 31.201C24.7312 31.0553 23.9647 30.9342 23.0761 30.9467C22.2942 30.9578 21.604 31.0697 21.0295 31.2117C20.9508 31.2311 20.9139 31.1035 20.9867 31.0636C21.359 30.8595 21.7934 30.6614 22.2871 30.503C23.5318 30.1036 24.616 30.1288 25.3302 30.2159L25.3337 31.201Z" fill="#EAE6FF"/>
<path d="M13.3562 44.987C13.7693 44.2329 13.3717 43.6157 13.8078 42.8951C14.2975 42.0858 15.0355 42.4738 15.5732 41.659C16.1177 40.8339 15.5813 40.1019 16.0658 39.5197C16.711 38.7444 17.9014 39.754 18.8576 38.9016C19.3633 38.4508 19.2257 37.9944 19.6787 37.3803C20.5149 36.2468 22.0412 36.3122 22.799 36.3343C24.9229 36.3965 26.455 37.7264 27.0688 38.3311L26.4905 32.4965L31.2354 41.1892C28.7154 43.1806 27.1158 43.3926 26.0931 43.1585C25.7325 43.076 25.1376 42.8679 24.4735 43.1585C23.5574 43.5594 23.5875 44.4375 22.6109 44.9871C21.6934 45.5035 21.3165 44.9256 20.6674 45.456C19.9434 46.0476 20.1254 47.0007 19.7136 47.6285C19.571 47.7309 19.4109 47.8069 19.2314 47.8377C18.8465 47.9039 18.7547 47.6975 18.2288 47.741C17.5198 47.7996 16.9997 48.2316 16.7807 48.4182C15.9174 49.1538 16.1051 49.754 15.4718 50.0628C14.8006 50.3903 14.4661 49.7761 13.801 50.1273C13.1288 50.4823 13.1641 51.2713 12.5756 51.4173C12.3052 51.4843 12.0662 51.3752 11.8752 51.2534C11.7991 51.0038 11.7784 50.7423 11.8 50.5198C11.851 49.9928 12.112 49.9311 12.2454 49.4414C12.5091 48.4733 11.6933 47.9633 11.8 46.9564C11.8702 46.293 12.2586 46.1908 12.6473 45.6855C12.9221 45.5315 13.179 45.3102 13.3562 44.987Z" fill="#FF2D77"/>
<path d="M13.541 41.9865C14.067 41.3624 14.7923 41.6915 15.1201 41.0018C15.3268 40.5671 15.083 40.3428 15.2011 39.689C15.3629 38.7929 16.0624 37.8766 16.8612 37.6728C17.7025 37.4582 18.1214 38.1698 18.6428 37.8135C19.1228 37.4854 18.8462 36.8286 19.4121 36.0317C19.8189 35.4589 20.3643 35.2315 21.0317 34.9533C22.0595 34.5249 22.1804 34.8249 22.6109 34.4845C23.4867 33.7918 23.0926 32.4654 23.9066 31.6712C24.2239 31.3616 24.7771 31.082 25.8096 31.2492L26.4905 32.4966L27.0687 38.3312C26.4549 37.7265 24.9229 36.3966 22.7989 36.3344C22.0411 36.3123 20.5148 36.2469 19.6787 37.3804C19.2256 37.9946 19.3633 38.451 18.8575 38.9017C17.9013 39.7541 16.7109 38.7445 16.0658 39.5198C15.5812 40.102 16.1176 40.834 15.5731 41.6591C15.0354 42.4739 14.2974 42.0859 13.8077 42.8952C13.3717 43.6158 13.7692 44.233 13.3561 44.9871C13.179 45.3103 12.922 45.5316 12.6472 45.6856C12.7733 45.5217 12.8993 45.3157 13.0146 45.0341C13.592 43.6236 12.9126 42.732 13.541 41.9865Z" fill="#E62769"/>
<path d="M12.5757 51.4173C13.1641 51.2713 13.1288 50.4823 13.801 50.1273C14.4661 49.7761 14.8006 50.3903 15.4719 50.0628C16.1051 49.754 15.9174 49.1538 16.7807 48.4182C16.9997 48.2316 17.5198 47.7996 18.2288 47.741C18.7547 47.6975 18.8466 47.9039 19.2314 47.8377C19.4109 47.8069 19.571 47.7309 19.7136 47.6285C19.637 47.7455 19.5397 47.8511 19.4122 47.941C18.7049 48.4396 18.1403 47.698 17.4282 48.2224C16.6632 48.7856 17.0048 49.8694 16.2539 50.3323C15.5839 50.7453 14.8953 50.1393 14.4724 50.6605C14.2183 50.9735 14.4081 51.2644 14.1484 51.6451C13.7808 52.1843 12.8312 52.4357 12.2454 51.8796C12.0654 51.7087 11.9462 51.4862 11.8752 51.2534C12.0663 51.3752 12.3052 51.4843 12.5757 51.4173Z" fill="#FF82AD"/>
<path d="M31.1513 40.122C28.8665 40.1317 25.1666 40.5099 20.9899 42.6481C18.1313 44.1116 15.884 45.9723 14.2299 47.6266C13.862 47.9945 13.3707 47.4288 13.6165 46.9199C13.9593 46.2103 14.3397 45.4998 14.7621 44.7954C20.0058 36.0496 28.2192 34.0854 31.4135 33.554L31.1513 40.122Z" fill="#E62769"/>
<path d="M28.4832 40.9504C26.634 40.9575 23.6395 41.2334 20.2591 42.7936C17.9455 43.8614 16.1266 45.2191 14.7879 46.4261C14.4901 46.6946 14.0924 46.2819 14.2914 45.9105C14.5688 45.3928 14.8767 44.8743 15.2185 44.3603C19.4626 37.9789 26.1101 36.5457 28.6954 36.158L28.4832 40.9504Z" fill="#C1B5FF"/>
<path d="M27.6228 40.1247C26.4455 40.0007 24.7187 39.9805 22.721 40.5473C21.0248 41.0286 19.6437 41.7883 18.5972 42.5155C18.4237 42.6361 18.2484 42.3636 18.3977 42.2054C18.889 41.6843 19.4501 41.1562 20.0875 40.6492C22.9477 38.3746 25.8236 37.7343 27.4924 37.5281L27.6228 40.1247Z" fill="#D4CCFF"/>
<path d="M27.3375 39.6961C26.4143 39.5387 24.8944 39.4134 23.1396 39.9103C22.5897 40.066 22.0997 40.2594 21.6721 40.4621C21.5528 40.5187 21.4528 40.3524 21.5558 40.2686C21.8076 40.0634 22.0915 39.86 22.4096 39.6694C24.2481 38.568 26.0916 38.5809 26.9725 38.6521L27.3375 39.6961Z" fill="#EAE6FF"/>
<path d="M35.3592 47.7092C35.2509 48.084 34.9925 48.7987 34.3909 49.3704C33.5589 50.1611 32.5788 50.1953 32.2748 50.201C31.0915 50.2233 30.7385 49.5698 30.1229 49.9103C29.9275 50.0184 29.8168 50.1654 29.7333 50.3348C29.4524 50.4788 29.0575 51.2543 28.0956 51.6127C27.4138 51.8668 27.2624 51.6074 26.8487 51.8892C26.0476 52.4349 26.4507 53.5198 25.6549 54.4083C24.9559 55.1886 24.341 54.6911 23.6917 55.5449C23.1819 56.2154 23.4537 56.6632 22.8958 57.3574C22.2919 58.1089 21.436 58.2528 21.251 58.2791C20.6885 58.3588 20.231 58.2152 19.9032 58.1123C19.7933 57.9802 19.6939 57.8229 19.6144 57.6351C19.3247 56.9504 19.4153 56.1399 19.722 55.6001C20.1149 54.9085 20.6225 55.0835 20.9056 54.4788C21.1942 53.8622 20.7841 53.4291 20.726 52.5892C20.8642 52.275 21.0384 51.9147 21.255 51.5301C21.797 50.568 22.0596 50.4207 22.3767 49.7983C23.0831 48.4119 22.425 47.8777 22.9749 46.7676C23.6418 45.4215 24.7535 45.9168 26.1155 44.1267C26.6673 43.4015 26.6383 43.1186 27.0128 42.9144C28.0525 42.3477 29.6624 43.7714 30.9012 45.1224L27.3989 39.1908C27.6997 39.0197 28.0164 38.8859 28.3297 38.7799L35.3592 47.7092Z" fill="#FF2D77"/>
<path d="M30.9011 45.1225C29.6623 43.7714 28.0524 42.3478 27.0128 42.9145C26.6382 43.1186 26.6672 43.4016 26.1154 44.1267C24.7534 45.9169 23.6417 45.4216 22.9748 46.7677C22.4249 47.8778 23.0831 48.412 22.3766 49.7984C22.0595 50.4208 21.7969 50.568 21.255 51.5302C21.0383 51.9148 20.8641 52.275 20.726 52.5893C20.7175 52.467 20.7164 52.3361 20.7262 52.1946C20.8143 50.9143 21.6334 50.92 22.0532 49.2459C22.3093 48.2244 22.0506 48.0376 22.376 46.754C22.5359 46.123 22.6929 45.5035 23.0933 44.8851C23.9152 43.6154 24.7428 43.926 25.3886 42.767C25.8481 41.9425 25.5607 41.5494 25.9625 40.6904C26.2851 40.0007 26.8117 39.5248 27.3988 39.1909L30.9011 45.1225Z" fill="#E62769"/>
<path d="M21.2509 58.2791C21.4359 58.2529 22.2918 58.109 22.8957 57.3575C23.4536 56.6633 23.1818 56.2154 23.6916 55.545C24.3408 54.6912 24.9558 55.1887 25.6548 54.4083C26.4506 53.5199 26.0475 52.435 26.8486 51.8892C27.2623 51.6074 27.4137 51.8668 28.0955 51.6128C29.0574 51.2543 29.4523 50.4789 29.7332 50.3348C29.5548 50.6967 29.5005 51.1614 29.011 51.5716C28.292 52.1741 27.812 51.6717 27.146 52.2361C26.4008 52.8677 26.8024 53.666 26.07 54.4788C25.281 55.3546 24.4817 54.7976 23.8464 55.6832C23.3551 56.3681 23.7276 56.8482 23.2008 57.6767C23.1438 57.7664 22.3711 58.9412 21.1924 58.7981C21.0866 58.7852 20.3903 58.698 19.9031 58.1124C20.2309 58.2152 20.6884 58.3589 21.2509 58.2791Z" fill="#FF82AD"/>
<path d="M33.9152 47.1299C32.5264 47.1842 30.462 47.4632 28.1678 48.5522C26.9994 49.1068 24.0693 50.5292 21.7714 53.9464C21.7674 53.9523 21.7635 53.9582 21.7595 53.9641C21.5625 54.258 21.1592 54.0215 21.2496 53.6645C21.3741 53.1723 21.5297 52.6395 21.7251 52.079C22.021 51.2299 23.0699 48.4189 25.5026 45.788C27.0563 44.1078 28.6465 43.0718 29.8827 42.4335L33.9152 47.1299Z" fill="#E62769"/>
<path d="M34.0543 47.0945C32.747 46.9966 30.5589 47.0396 28.1118 48.139C25.7222 49.2125 24.0108 50.8775 22.8683 52.3209C22.5303 52.748 21.9382 52.2974 22.1382 51.7664C22.3276 51.2635 22.5484 50.7485 22.8059 50.228C25.329 45.129 29.5933 43.1277 31.1892 42.4865L34.0543 47.0945Z" fill="#C1B5FF"/>
<path d="M32.9574 46.638C32.0744 46.4937 30.8419 46.4166 29.4172 46.7253C27.4758 47.1459 25.9968 48.1053 25.0264 48.9084C24.8559 49.0495 24.6425 48.813 24.7578 48.6104C25.0789 48.0461 25.4936 47.4366 26.0276 46.8446C27.9355 44.7299 30.1513 44.1865 31.112 44.0214L32.9574 46.638Z" fill="#D4CCFF"/>
<path d="M31.0888 46.112C30.5144 46.0954 29.6793 46.1461 28.7226 46.4743C28.243 46.6388 27.823 46.8422 27.465 47.0502C27.3552 47.114 27.2593 46.9398 27.3555 46.8515C27.5359 46.6859 27.737 46.5201 27.96 46.3611C28.9306 45.6692 29.8604 45.4325 30.4435 45.342L31.0888 46.112Z" fill="#EAE6FF"/>
<path d="M90.3544 27.8142C89.3513 27.4192 88.6765 28.2947 87.4819 28.1537C86.1212 27.993 86.2162 26.7649 84.5608 26.1496C82.8894 25.5283 81.1325 26.1634 80.9716 26.2239C78.9395 26.9879 78.7809 28.6583 77.8932 28.6871C76.8482 28.721 75.3523 26.4612 74.7033 24.0981L74.269 32.4745C76.7835 34.7879 78.242 34.9862 79.1122 34.7296C80.382 34.3553 80.7399 32.912 81.8625 32.9437C82.8902 32.9726 83.0103 34.1938 84.4077 34.4336C85.3772 34.6 85.5754 33.9683 86.8694 34.0716C87.8699 34.1515 88.3779 34.4861 88.9079 34.6842C89.2187 34.6539 89.5486 34.5881 89.8844 34.4679C89.9994 34.4267 90.0865 34.3893 91.172 33.7658C93.1181 32.6481 93.2781 32.5154 93.6522 32.523C94.6188 32.5426 94.8479 33.4548 95.577 33.3452C96.3235 33.233 96.5795 32.2019 96.9406 31.8331C96.8664 31.0759 96.3131 30.5055 96.2072 30.4001C95.4051 29.6015 94.6486 29.9285 93.3903 29.3241C92.9045 29.3373 92.1217 29.1061 91.5527 28.7722C90.8363 28.3518 90.9082 28.0322 90.3544 27.8142Z" fill="#FF2D77"/>
<path d="M90.6297 26.9592C89.116 26.4623 88.2332 27.6478 86.8283 27.1258C85.4894 26.6283 85.8664 25.3939 84.4552 24.8143C83.1441 24.2758 82.4568 25.1928 80.8901 24.7173C79.353 24.2507 79.3341 23.1614 77.9769 22.8467C77.244 22.6767 76.2029 22.7516 74.7286 23.6076L74.7031 24.0981C75.3522 26.4612 76.848 28.7209 77.8931 28.6871C78.7808 28.6583 78.9393 26.9879 80.9715 26.2238C81.1324 26.1633 82.8893 25.5283 84.5607 26.1495C86.2161 26.7648 86.121 27.993 87.4818 28.1536C88.6763 28.2947 89.3512 27.4192 90.3543 27.8141C90.9081 28.0322 90.8361 28.3518 91.5526 28.7722C92.1216 29.1061 92.9044 29.3372 93.3901 29.324C93.3146 29.2878 93.2376 29.2486 93.1583 29.2052C91.5415 28.3192 91.9132 27.3806 90.6297 26.9592Z" fill="#E62769"/>
<path d="M95.577 33.3453C94.848 33.4549 94.6189 32.5426 93.6523 32.5231C93.2782 32.5155 93.1182 32.6482 91.1721 33.7659C90.0866 34.3894 89.9994 34.4267 89.8844 34.4679C89.5487 34.5882 89.2188 34.654 88.908 34.6843C89.2135 34.7986 89.5263 34.8676 89.945 34.8161C91.2878 34.6508 91.4705 33.5239 92.7502 33.4949C93.7446 33.4723 93.9529 34.1456 94.9145 34.0402C95.7341 33.9504 96.557 33.3546 96.8426 32.5871C96.9409 32.3231 96.9638 32.0692 96.9406 31.8331C96.5796 32.202 96.3236 33.233 95.577 33.3453Z" fill="#FF82AD"/>
<path d="M78.7626 32.8902C80.6541 32.2892 83.5744 31.6084 87.1624 31.7346C88.991 31.7989 90.6126 32.0595 91.9809 32.3833C92.5313 32.5135 92.8939 31.8257 92.467 31.4611C91.8591 30.9418 91.1836 30.4363 90.4341 29.9641C83.7919 25.7796 76.2151 27.2859 73.8577 27.8531L78.7626 32.8902Z" fill="#E62769"/>
<path d="M79.2451 32.3501C80.9279 31.8528 83.5235 31.2806 86.7015 31.3401C88.3212 31.3705 89.7552 31.5586 90.964 31.7997C91.4503 31.8967 91.7794 31.3477 91.4052 31.0637C90.8723 30.6592 90.2795 30.2664 89.6206 29.9007C83.7818 26.6607 77.0507 27.9394 74.9553 28.4152L79.2451 32.3501Z" fill="#C1B5FF"/>
<path d="M79.5645 31.6606C80.4895 31.2365 81.8538 30.7235 83.5771 30.448C85.0733 30.2088 86.3879 30.2208 87.413 30.3103C87.6122 30.3277 87.6988 30.0873 87.5211 30.0099C86.8811 29.731 86.1277 29.4649 85.2636 29.264C82.263 28.5665 79.6546 29.0574 78.3286 29.3999L79.5645 31.6606Z" fill="#D4CCFF"/>
<path d="M79.6664 30.7116C80.4723 30.4637 81.5053 30.2147 82.7218 30.0841C83.792 29.9692 84.7493 29.9733 85.552 30.0272C85.662 30.0346 85.6969 29.8967 85.5926 29.8673C85.0586 29.7166 84.4405 29.582 83.7462 29.4981C81.9958 29.2865 80.5166 29.4877 79.5508 29.6931L79.6664 30.7116Z" fill="#EAE6FF"/>
<path d="M97.7249 43.0218C97.0679 42.3094 97.5361 41.6074 96.852 40.9332C96.0836 40.1761 95.1221 40.6962 94.2875 39.9412C93.4423 39.1766 94.0863 38.3335 93.3527 37.8101C92.376 37.1133 90.8719 38.3488 89.4604 37.6226C88.714 37.2385 88.8464 36.7446 88.1521 36.1832C86.8705 35.147 84.7918 35.4612 83.7585 35.6065C80.8623 36.0139 78.9303 37.6357 78.165 38.3598L78.2429 32.2372L72.8176 41.9864C76.506 43.637 78.7189 43.5976 80.0884 43.1905C80.5713 43.0469 81.3592 42.7358 82.3026 42.9288C83.604 43.195 83.6701 44.1072 85.0723 44.5174C86.3897 44.9027 86.8344 44.2447 87.7867 44.6879C88.8487 45.1822 88.7163 46.1965 89.3559 46.7787C89.5635 46.8614 89.7916 46.914 90.0408 46.9169C90.575 46.9231 90.6754 46.695 91.3996 46.655C92.3761 46.601 93.1399 46.9634 93.4621 47.1208C94.7322 47.7414 94.5489 48.3919 95.4524 48.6088C96.41 48.8386 96.7923 48.1499 97.7446 48.4054C98.7069 48.6636 98.755 49.4846 99.5773 49.5403C99.9552 49.566 100.269 49.4146 100.515 49.2579C100.588 48.9876 100.585 48.7141 100.528 48.4877C100.394 47.9514 100.03 47.9297 99.7875 47.4453C99.3087 46.4875 100.362 45.8287 100.093 44.8055C99.9158 44.1313 99.3724 44.0885 98.7793 43.6291C98.3848 43.5144 98.0065 43.3272 97.7249 43.0218Z" fill="#FF2D77"/>
<path d="M97.1057 39.9512C96.3104 39.3913 95.359 39.8485 94.8266 39.1889C94.491 38.773 94.7968 38.5019 94.5555 37.8453C94.2248 36.9455 93.1567 36.1117 92.0397 36.0302C90.8632 35.9444 90.3776 36.7474 89.6212 36.4634C88.9248 36.202 89.2228 35.4786 88.3518 34.7466C87.7257 34.2204 86.9523 34.0736 86.0059 33.894C84.5485 33.6173 84.4197 33.9468 83.7897 33.6646C82.5077 33.0904 82.8845 31.6561 81.6748 30.9669C81.203 30.6982 80.4127 30.4987 79.0215 30.8384L78.243 32.2373L78.165 38.3599C78.9304 37.6358 80.8624 36.014 83.7586 35.6067C84.7918 35.4613 86.8705 35.1471 88.1521 36.1833C88.8465 36.7447 88.7141 37.2386 89.4605 37.6227C90.8719 38.3489 92.3761 37.1134 93.3527 37.8102C94.0863 38.3336 93.4423 39.1767 94.2876 39.9413C95.1222 40.6963 96.0837 40.1762 96.8521 40.9334C97.5362 41.6075 97.068 42.3095 97.725 43.022C98.0066 43.3274 98.3849 43.5146 98.7794 43.6292C98.5871 43.4803 98.3895 43.2878 98.1975 43.0154C97.236 41.6512 98.0559 40.62 97.1057 39.9512Z" fill="#E62769"/>
<path d="M99.5773 49.5404C98.755 49.4847 98.7069 48.6637 97.7446 48.4055C96.7923 48.15 96.4101 48.8387 95.4524 48.6089C94.5489 48.392 94.7322 47.7415 93.4621 47.1209C93.1399 46.9635 92.3762 46.6011 91.3996 46.6551C90.6754 46.6951 90.575 46.9232 90.0408 46.917C89.7916 46.9141 89.5635 46.8615 89.356 46.7788C89.4751 46.8872 89.6209 46.9807 89.8062 47.053C90.834 47.4539 91.5154 46.5963 92.553 47.0231C93.6676 47.4816 93.3329 48.6566 94.4161 49.0136C95.3825 49.3322 96.2499 48.5947 96.8918 49.0649C97.2773 49.3473 97.0535 49.6786 97.4549 50.0301C98.0234 50.5278 99.3523 50.6342 100.085 49.9648C100.31 49.7592 100.446 49.51 100.515 49.258C100.269 49.4147 99.9552 49.5661 99.5773 49.5404Z" fill="#FF82AD"/>
<path d="M72.8022 40.8701C75.927 40.511 81.0315 40.3039 87.0027 41.8386C91.0895 42.889 94.3892 44.4486 96.8526 45.8907C97.4005 46.2115 98.0032 45.5475 97.6049 45.0614C97.0496 44.3835 96.4428 43.7107 95.7793 43.0511C87.5423 34.8611 76.0736 34.1585 71.6416 34.1255L72.8022 40.8701Z" fill="#E62769"/>
<path d="M76.5512 41.2949C79.0802 41.0035 83.2078 40.8047 88.0198 41.8707C91.3132 42.6003 93.9657 43.7094 95.9433 44.7404C96.3832 44.9697 96.8765 44.4789 96.5592 44.1273C96.1166 43.6371 95.6324 43.1511 95.1023 42.6753C88.5207 36.7669 79.2576 36.36 75.6758 36.3771L76.5512 41.2949Z" fill="#C1B5FF"/>
<path d="M77.6267 40.3026C79.221 39.9843 81.5793 39.6844 84.3798 39.9474C86.7575 40.1706 88.7384 40.7325 90.2579 41.3148C90.5099 41.4113 90.7162 41.1015 90.4928 40.9621C89.7575 40.503 88.9259 40.048 87.9925 39.6271C83.8045 37.7388 79.7944 37.5418 77.4878 37.5984L77.6267 40.3026Z" fill="#D4CCFF"/>
<path d="M77.9644 39.8137C79.2072 39.5019 81.2699 39.1269 83.7295 39.3568C84.5005 39.4288 85.194 39.5494 85.8033 39.6898C85.9733 39.729 86.0897 39.5411 85.9387 39.4711C85.5693 39.2998 85.1564 39.1354 84.6982 38.9898C82.0503 38.1488 79.5314 38.46 78.3359 38.676L77.9644 39.8137Z" fill="#EAE6FF"/>
<path d="M67.9761 49.3901C68.17 49.7599 68.6105 50.4566 69.5028 50.9502C70.7368 51.6328 72.0809 51.5098 72.4972 51.4666C74.1177 51.2984 74.5205 50.5661 75.4037 50.8185C75.6841 50.8987 75.8533 51.0326 75.9882 51.1942C76.3898 51.2976 77.0244 52.0351 78.3833 52.2501C79.3464 52.4024 79.5217 52.1099 80.1217 52.3343C81.2836 52.7688 80.8649 53.955 82.0614 54.7445C83.1123 55.4379 83.8923 54.8244 84.8842 55.6018C85.663 56.2122 85.3461 56.7189 86.1936 57.3461C87.111 58.0251 88.2988 58.0355 88.5549 58.0327C89.3337 58.0242 89.9415 57.8019 90.3772 57.6426C90.5113 57.4883 90.628 57.3097 90.7137 57.1029C91.0262 56.3485 90.8032 55.5257 90.3181 55.0174C89.6964 54.3662 89.0239 54.629 88.563 54.0499C88.0931 53.4594 88.6009 52.9456 88.5777 52.0684C88.3504 51.766 88.0683 51.4219 87.7251 51.0594C86.8667 50.1528 86.4898 50.043 85.9802 49.4511C84.8451 48.1327 85.6796 47.4743 84.7922 46.4161C83.7161 45.1329 82.2568 45.8243 80.176 44.1945C79.3331 43.5343 79.3382 43.2373 78.8012 43.0869C77.3107 42.6692 75.2836 44.4005 73.7549 45.9968L77.8187 39.3016C77.3865 39.1734 76.9372 39.0862 76.496 39.0273L67.9761 49.3901Z" fill="#FF2D77"/>
<path d="M73.7549 45.9967C75.2835 44.4005 77.3106 42.6692 78.8012 43.0868C79.3382 43.2373 79.3331 43.5343 80.176 44.1945C82.2567 45.8242 83.7161 45.1328 84.7922 46.4161C85.6796 47.4743 84.845 48.1327 85.9801 49.4511C86.4897 50.043 86.8667 50.1527 87.7251 51.0594C88.0683 51.4218 88.3504 51.7659 88.5777 52.0683C88.5743 51.9405 88.5598 51.8051 88.5292 51.6605C88.2524 50.3517 87.1332 50.49 86.3549 48.8279C85.8799 47.8137 86.2108 47.579 85.6092 46.3051C85.3135 45.6789 85.0232 45.0642 84.4003 44.4898C83.1215 43.3106 82.028 43.7653 81.0036 42.672C80.2748 41.8942 80.6197 41.4416 79.9654 40.6189C79.4401 39.9584 78.662 39.5516 77.8187 39.3015L73.7549 45.9967Z" fill="#E62769"/>
<path d="M88.555 58.0327C88.2989 58.0355 87.1111 58.0251 86.1937 57.3462C85.3462 56.719 85.6631 56.2123 84.8843 55.6018C83.8924 54.8245 83.1124 55.4379 82.0615 54.7445C80.865 53.955 81.2837 52.7688 80.1218 52.3344C79.5218 52.11 79.3465 52.4025 78.3834 52.2501C77.0245 52.0351 76.3899 51.2977 75.9883 51.1942C76.2764 51.5393 76.4073 52.0107 77.1267 52.3556C78.1832 52.862 78.7781 52.2652 79.7575 52.7409C80.8535 53.2731 80.402 54.1629 81.5024 54.8845C82.6881 55.6619 83.7128 54.9572 84.6895 55.7697C85.4448 56.398 84.9943 56.9543 85.8156 57.7254C85.9045 57.8088 87.1044 58.8979 88.6984 58.5596C88.8414 58.5292 89.7827 58.3265 90.3773 57.6427C89.9416 57.8019 89.3338 58.0243 88.555 58.0327Z" fill="#FF82AD"/>
<path d="M45.7766 83.4739C45.6817 83.9547 45.5831 84.4336 45.4807 84.9103C47.8947 87.3025 51.067 89.0655 54.6568 89.8929C54.317 88.7701 54.0261 87.5561 53.7704 86.2937C50.6844 86.1634 47.8909 85.1158 45.7766 83.4739Z" fill="#DDE8FF"/>
<path d="M73.2294 64.9656C73.4253 60.6385 72.9997 56.5824 72.197 52.8589C70.9811 51.2155 69.2826 49.7973 67.243 48.7101C65.4958 54.2206 62.6453 60.3138 57.9162 65.7197C63.2078 66.9767 67.0806 71.0187 67.0806 75.8112C67.0806 81.6081 61.4143 86.3075 54.4245 86.3075C54.2051 86.3075 53.987 86.3028 53.7703 86.2937C54.026 87.5561 54.3168 88.77 54.6567 89.8928C55.3844 90.0606 56.1293 90.1896 56.8884 90.2779C59.8936 89.5242 63.1464 88.1107 66.0048 85.5281C72.5669 79.5989 72.9464 71.2167 73.2294 64.9656Z" fill="#57626F"/>
<path d="M41.7684 75.8112C41.7684 73.2043 42.9148 70.8197 44.8117 68.9843C42.5601 65.8326 41.3036 62.4272 40.6541 59.1633C40.6943 60.4637 41.0016 61.715 41.5372 62.888C42.2954 64.5484 42.3426 66.4389 41.6828 68.1407C41.0132 69.8677 40.6492 71.7232 40.6492 73.6552C40.6492 77.9872 42.4784 81.9352 45.4805 84.9103C45.5829 84.4336 45.6815 83.9547 45.7764 83.4738C43.3102 81.5586 41.7684 78.8344 41.7684 75.8112Z" fill="#57626F"/>
<path d="M56.5388 61.2378C55.9892 62.665 55.4161 64.0256 54.8301 65.3208C55.8974 65.3487 56.9314 65.4858 57.9163 65.7197C62.6454 60.3138 65.4959 54.2206 67.243 48.7101C66.8336 48.4918 66.4105 48.2869 65.9748 48.0962L58.9179 54.0183C58.2955 56.2747 57.5173 58.6966 56.5388 61.2378Z" fill="#4A535E"/>
<path d="M46.1269 67.8856C45.9427 67.1624 45.7649 66.4228 45.5955 65.6661C44.6915 61.6304 44.1883 57.884 43.9306 54.5377L41.4146 55.1327C40.9174 56.3129 40.6492 57.5683 40.6492 58.8704C40.6492 58.9683 40.6511 59.0659 40.6541 59.1633C41.3036 62.4272 42.5601 65.8326 44.8117 68.9843C45.2172 68.5919 45.6567 68.2245 46.1269 67.8856Z" fill="#4A535E"/>
<path d="M52.2163 67.9313C52.67 67.9313 53.1158 67.9579 53.5514 68.0087C53.9819 67.1472 54.4092 66.2507 54.83 65.3207C54.6953 65.3172 54.5602 65.3148 54.4245 65.3148C51.25 65.3148 48.3487 66.2843 46.127 67.8855C46.2668 68.4345 46.4106 68.9737 46.5576 69.503C48.1011 68.5206 50.0705 67.9313 52.2163 67.9313Z" fill="#E6EEFF"/>
<path d="M52.2165 81.9498C49.9738 81.9498 47.9234 81.3064 46.3509 80.2428C46.1786 81.33 45.9872 82.4071 45.7766 83.4738C47.8909 85.1158 50.6845 86.1633 53.7704 86.2937C53.4837 84.8779 53.2414 83.4012 53.0254 81.9211C52.7589 81.9398 52.4892 81.9498 52.2165 81.9498Z" fill="#E6EEFF"/>
<path d="M55.3725 68.3782C58.7681 69.3763 61.1845 71.9377 61.1845 74.9406C61.1845 78.5986 57.5991 81.6015 53.0254 81.9212C53.2414 83.4012 53.4836 84.878 53.7704 86.2937C53.9871 86.3028 54.2052 86.3075 54.4247 86.3075C61.4144 86.3075 67.0807 81.6081 67.0807 75.8112C67.0807 71.0188 63.2079 66.9767 57.9163 65.7197C57.1224 66.6272 56.276 67.5155 55.3725 68.3782Z" fill="#6C798A"/>
<path d="M43.2484 74.9405C43.2484 73.0804 44.1758 71.3897 45.6886 70.1349C45.4014 69.7811 45.1202 69.4145 44.8467 69.0337C44.8349 69.0173 44.8235 69.0007 44.8118 68.9843C42.9149 70.8197 41.7686 73.2042 41.7686 75.8111C41.7686 78.8343 43.3103 81.5585 45.7765 83.4738C45.9871 82.4071 46.1785 81.3299 46.3508 80.2428C44.4506 78.9575 43.2484 77.0588 43.2484 74.9405Z" fill="#6C798A"/>
<path d="M53.5515 68.0088C54.1824 68.0824 54.7916 68.2075 55.3724 68.3782C56.2759 67.5155 57.1224 66.6272 57.9162 65.7197C56.9314 65.4858 55.8974 65.3487 54.8301 65.3208C54.4093 66.2508 53.9819 67.1473 53.5515 68.0088Z" fill="#4A535E"/>
<path d="M45.6886 70.1349C45.9601 69.9097 46.2504 69.6986 46.5577 69.503C46.4107 68.9737 46.2669 68.4345 46.127 67.8855C45.6568 68.2244 45.2173 68.5919 44.8118 68.9842C44.8235 69.0007 44.8349 69.0173 44.8467 69.0337C45.1202 69.4145 45.4014 69.7811 45.6886 70.1349Z" fill="#4A535E"/>
<path d="M46.5577 69.503C46.785 70.3215 47.0199 71.1167 47.2605 71.8874C47.23 72.3992 47.1949 72.9132 47.1548 73.4294C46.9754 75.7431 46.704 78.0142 46.3508 80.2428C47.9233 81.3063 49.9737 81.9498 52.2164 81.9498C52.4891 81.9498 52.7588 81.9397 53.0253 81.9211C52.6349 79.2464 52.3295 76.5627 51.9997 74.2171C51.87 73.2944 51.7706 72.3859 51.6984 71.4929C52.3146 70.4021 52.9361 69.2405 53.5516 68.0087C53.1159 67.9579 52.6702 67.9313 52.2164 67.9313C50.0706 67.9313 48.1012 68.5206 46.5577 69.503Z" fill="white"/>
<path d="M51.6982 71.4929C51.7705 72.386 51.8699 73.2944 51.9996 74.2171C52.3294 76.5627 52.6348 79.2464 53.0252 81.9211C57.599 81.6014 61.1843 78.5985 61.1843 74.9406C61.1843 71.9377 58.768 69.3763 55.3723 68.3782C55.0656 68.671 54.7525 68.961 54.4326 69.2477C53.5318 70.0554 52.618 70.8021 51.6982 71.4929Z" fill="#8696AB"/>
<path d="M47.2603 71.8875C46.7209 71.3426 46.195 70.7591 45.6885 70.135C44.1757 71.3898 43.2483 73.0805 43.2483 74.9406C43.2483 77.0588 44.4505 78.9576 46.3507 80.2428C46.7039 78.0143 46.9753 75.7432 47.1547 73.4295C47.1947 72.9133 47.2299 72.3993 47.2603 71.8875Z" fill="#8696AB"/>
<path d="M54.4326 69.2477C54.7525 68.9609 55.0656 68.671 55.3723 68.3781C54.7916 68.2074 54.1823 68.0823 53.5514 68.0087C52.936 69.2404 52.3145 70.4021 51.6982 71.4929C52.618 70.802 53.5318 70.0553 54.4326 69.2477Z" fill="#4A535E"/>
<path d="M46.5576 69.5031C46.2503 69.6986 45.96 69.9097 45.6885 70.1349C46.195 70.7591 46.7209 71.3426 47.2604 71.8874C47.0198 71.1167 46.7849 70.3215 46.5576 69.5031Z" fill="#4A535E"/>
<path d="M77.9643 73.6553C77.9643 71.9202 77.6708 70.2467 77.1261 68.6726L73.9556 56.4576L73.9546 56.4577C73.6175 55.1772 73.0168 53.9669 72.197 52.8589C72.9997 56.5825 73.4253 60.6385 73.2294 64.9657C72.9464 71.2167 72.5669 79.5989 66.0047 85.5281C63.1464 88.1107 59.8936 89.5242 56.8884 90.2779C57.6801 90.37 58.4872 90.4178 59.3067 90.4178C69.611 90.4178 77.9643 82.913 77.9643 73.6553Z" fill="#4A535E"/>
<path d="M69.8794 48.5581C71.7848 48.3898 74.6411 48.3446 77.9107 49.0992C79.5757 49.4835 83.7553 50.4798 87.3142 53.6396C87.3204 53.6451 87.3265 53.6506 87.3326 53.656C87.6379 53.9279 88.1603 53.6184 87.9932 53.2641C87.7629 52.7756 87.4851 52.2502 87.1495 51.7025C86.6412 50.8729 84.8639 48.1378 81.2167 45.8123C78.8875 44.3271 76.5868 43.5135 74.8188 43.0536L69.8794 48.5581Z" fill="#E62769"/>
<path d="M69.6848 48.544C71.4601 48.2315 74.4568 47.9225 77.9367 48.6631C81.3346 49.3863 83.8777 50.8302 85.6159 52.1371C86.1302 52.5238 86.8847 51.9626 86.5464 51.4462C86.226 50.9572 85.8613 50.4606 85.4457 49.9644C81.3735 45.1031 75.2992 43.7241 73.0391 43.3193L69.6848 48.544Z" fill="#C1B5FF"/>
<path d="M73.2053 47.5219C74.2692 47.3717 75.7542 47.2915 77.4709 47.6127C79.8102 48.0504 81.5922 49.0487 82.7615 49.8844C82.9669 50.0312 83.224 49.7851 83.0851 49.5742C82.6982 48.9871 82.1986 48.3529 81.555 47.7369C79.2562 45.5365 76.5865 44.971 75.4289 44.7992L73.2053 47.5219Z" fill="#D4CCFF"/>
<path d="M75.4568 46.9746C76.149 46.9574 77.1551 47.0101 78.3079 47.3516C78.8858 47.5228 79.3919 47.7344 79.8232 47.9508C79.9555 48.0172 80.0711 47.836 79.9551 47.7441C79.7378 47.5717 79.4955 47.3992 79.2268 47.2338C78.0574 46.5139 76.9369 46.2676 76.2344 46.1735L75.4568 46.9746Z" fill="#EAE6FF"/>
<path d="M77.28 25.7076C74.2025 21.6624 69.2501 18.4402 63.2483 16.6249C65.5551 18.1636 67.5305 19.9218 69.0953 21.8489C71.6799 25.0317 73.1471 28.6739 73.1471 32.5438C73.1471 43.9451 60.4151 53.371 43.8799 54.8914C46.452 55.4274 49.1738 55.7155 51.9907 55.7155C67.8493 55.7155 80.7052 46.601 80.7052 35.3577C80.7052 31.8659 79.4649 28.5796 77.28 25.7076Z" fill="#A594FF"/>
<path d="M73.147 32.5439C73.147 28.6739 71.6798 25.0318 69.0952 21.8489C67.5304 19.9218 65.555 18.1637 63.2482 16.6249C59.7913 15.5793 55.9865 15 51.9906 15C36.132 15 23.2761 24.1145 23.2761 35.3578C23.2761 41.7308 27.4071 47.4197 33.8738 51.1525C36.7891 52.8354 40.1794 54.1202 43.8798 54.8914C60.415 53.371 73.147 43.9451 73.147 32.5439Z" fill="#C1B5FF"/>
<path d="M44.4513 39.74C53.4828 39.74 60.8044 35.0384 60.8044 29.2387C60.8044 23.439 53.4828 18.7374 44.4513 18.7374C35.4197 18.7374 28.0981 23.439 28.0981 29.2387C28.0981 35.0384 35.4197 39.74 44.4513 39.74Z" fill="#D4CCFF"/>
<path d="M43.3872 33.4097C48.9919 33.4097 53.5354 30.4921 53.5354 26.893C53.5354 23.2939 48.9919 20.3762 43.3872 20.3762C37.7825 20.3762 33.239 23.2939 33.239 26.893C33.239 30.4921 37.7825 33.4097 43.3872 33.4097Z" fill="#EAE6FF"/>
<path d="M34.3656 43.7262C35.0908 42.1314 34.0199 40.0843 31.9738 39.1539C29.9277 38.2235 27.6811 38.7622 26.9559 40.357C26.2307 41.9519 27.3015 43.999 29.3476 44.9294C31.3938 45.8597 33.6404 45.3211 34.3656 43.7262Z" fill="#FF2D77"/>
<path d="M32.8098 42.441C33.2937 41.3769 32.5792 40.011 31.2139 39.3902C29.8487 38.7694 28.3497 39.1288 27.8659 40.193C27.382 41.2571 28.0965 42.623 29.4617 43.2438C30.8269 43.8645 32.3259 43.5051 32.8098 42.441Z" fill="#FF5E97"/>
<path d="M31.9618 41.3585C32.2435 40.739 31.737 39.9026 30.8306 39.4904C29.9241 39.0783 28.961 39.2464 28.6793 39.8659C28.3976 40.4854 28.904 41.3218 29.8105 41.734C30.7169 42.1461 31.6801 41.978 31.9618 41.3585Z" fill="#FF80AD"/>
<path d="M65.8851 45.6383C68.2451 44.5653 69.5664 42.3938 68.8363 40.7882C68.1062 39.1827 65.6013 38.751 63.2413 39.8241C60.8814 40.8972 59.5601 43.0687 60.2902 44.6742C61.0202 46.2798 63.5251 46.7114 65.8851 45.6383Z" fill="#FF2D77"/>
<path d="M65.7852 43.8763C67.3599 43.1604 68.2441 41.7173 67.7602 40.6532C67.2764 39.589 65.6076 39.3068 64.033 40.0228C62.4584 40.7388 61.5741 42.1819 62.058 43.246C62.5419 44.3101 64.2106 44.5923 65.7852 43.8763Z" fill="#FF5E97"/>
<path d="M65.4793 42.347C66.5248 41.8716 67.144 40.984 66.8623 40.3645C66.5806 39.7449 65.5047 39.6281 64.4592 40.1035C63.4137 40.5789 62.7945 41.4665 63.0762 42.086C63.3579 42.7055 64.4338 42.8224 65.4793 42.347Z" fill="#FF80AD"/>
<path d="M61.5256 28.2311C61.8204 27.6424 60.893 26.581 59.4542 25.8606C58.0155 25.1402 56.6101 25.0335 56.3153 25.6223C56.0205 26.2111 56.9479 27.2724 58.3867 27.9928C59.8255 28.7132 61.2308 28.8199 61.5256 28.2311Z" fill="#57626F"/>
<path d="M63.6186 33.641C63.7894 34.2314 63.882 34.8641 63.882 35.5221C63.882 38.7579 61.6425 41.381 58.88 41.381C58.3537 41.381 57.8465 41.2855 57.3701 41.109C58.1804 41.9535 59.2622 42.4698 60.4511 42.4698C62.9626 42.4698 64.9986 40.1679 64.9986 37.3283C64.9986 35.8816 64.4693 34.5753 63.6186 33.641Z" fill="#4A535E"/>
<path d="M63.8821 35.5221C63.8821 34.8641 63.7894 34.2314 63.6187 33.641C62.7997 32.7416 61.683 32.1869 60.4511 32.1869C57.9396 32.1869 55.9036 34.4888 55.9036 37.3283C55.9036 38.8238 56.4687 40.1696 57.3702 41.109C57.8466 41.2855 58.3538 41.381 58.88 41.381C61.6426 41.381 63.8821 38.7579 63.8821 35.5221Z" fill="#57626F"/>
<path d="M58.578 40.3062C59.4124 40.3062 60.0888 39.6298 60.0888 38.7954C60.0888 37.961 59.4124 37.2845 58.578 37.2845C57.7436 37.2845 57.0671 37.961 57.0671 38.7954C57.0671 39.6298 57.7436 40.3062 58.578 40.3062Z" fill="#8E9FB5"/>
<path d="M60.4687 36.7833C60.9486 36.7833 61.3376 36.3943 61.3376 35.9144C61.3376 35.4345 60.9486 35.0455 60.4687 35.0455C59.9889 35.0455 59.5999 35.4345 59.5999 35.9144C59.5999 36.3943 59.9889 36.7833 60.4687 36.7833Z" fill="#8E9FB5"/>
<path d="M58.4121 39.9658C58.9393 39.9658 59.3667 39.5384 59.3667 39.0112C59.3667 38.484 58.9393 38.0566 58.4121 38.0566C57.8849 38.0566 57.4575 38.484 57.4575 39.0112C57.4575 39.5384 57.8849 39.9658 58.4121 39.9658Z" fill="#BED4F2"/>
<path d="M60.4514 36.578C60.7462 36.578 60.9851 36.339 60.9851 36.0443C60.9851 35.7495 60.7462 35.5106 60.4514 35.5106C60.1567 35.5106 59.9177 35.7495 59.9177 36.0443C59.9177 36.339 60.1567 36.578 60.4514 36.578Z" fill="#BED4F2"/>
<path d="M37.6691 27.9929C39.1079 27.2725 40.0353 26.2111 39.7405 25.6224C39.4457 25.0336 38.0403 25.1403 36.6015 25.8607C35.1627 26.5811 34.2353 27.6425 34.5301 28.2312C34.8249 28.82 36.2303 28.7133 37.6691 27.9929Z" fill="#57626F"/>
<path d="M39.2693 33.641C39.44 34.2314 39.5327 34.8641 39.5327 35.5221C39.5327 38.7579 37.2932 41.381 34.5306 41.381C34.0044 41.381 33.4972 41.2855 33.0208 41.109C33.831 41.9535 34.9128 42.4698 36.1017 42.4698C38.6132 42.4698 40.6493 40.1679 40.6493 37.3283C40.6493 35.8816 40.1199 34.5753 39.2693 33.641Z" fill="#4A535E"/>
<path d="M39.5327 35.5221C39.5327 34.8641 39.4401 34.2314 39.2693 33.641C38.4504 32.7416 37.3336 32.1869 36.1017 32.1869C33.5902 32.1869 31.5542 34.4888 31.5542 37.3283C31.5542 38.8238 32.1193 40.1696 33.0208 41.109C33.4972 41.2855 34.0044 41.381 34.5307 41.381C37.2932 41.381 39.5327 38.7579 39.5327 35.5221Z" fill="#57626F"/>
<path d="M34.2415 40.3062C35.0759 40.3062 35.7523 39.6298 35.7523 38.7954C35.7523 37.961 35.0759 37.2845 34.2415 37.2845C33.4071 37.2845 32.7307 37.961 32.7307 38.7954C32.7307 39.6298 33.4071 40.3062 34.2415 40.3062Z" fill="#8E9FB5"/>
<path d="M36.1323 36.7833C36.6122 36.7833 37.0012 36.3943 37.0012 35.9144C37.0012 35.4345 36.6122 35.0455 36.1323 35.0455C35.6524 35.0455 35.2634 35.4345 35.2634 35.9144C35.2634 36.3943 35.6524 36.7833 36.1323 36.7833Z" fill="#8E9FB5"/>
<path d="M34.0757 39.9658C34.6029 39.9658 35.0303 39.5384 35.0303 39.0112C35.0303 38.484 34.6029 38.0566 34.0757 38.0566C33.5485 38.0566 33.1211 38.484 33.1211 39.0112C33.1211 39.5384 33.5485 39.9658 34.0757 39.9658Z" fill="#BED4F2"/>
<path d="M36.1152 36.578C36.41 36.578 36.6489 36.339 36.6489 36.0443C36.6489 35.7495 36.41 35.5106 36.1152 35.5106C35.8205 35.5106 35.5815 35.7495 35.5815 36.0443C35.5815 36.339 35.8205 36.578 36.1152 36.578Z" fill="#BED4F2"/>
<path d="M43.552 46.203L45.6232 44.227C46.1728 43.7028 47.0203 43.6511 47.6295 44.1047L50.863 46.5121L47.1956 45.1339C46.8229 44.9938 46.4107 45.0017 46.0436 45.1559L43.552 46.203Z" fill="#57626F"/>
<path d="M58.5998 81.5443C58.4092 82.6948 58.421 83.6388 58.4702 84.2975C58.5339 85.1492 58.7121 85.8537 59.025 87.2375C59.0271 87.2466 59.0292 87.2557 59.0312 87.2648C59.3583 88.7065 60.8182 89.5871 62.2498 89.2183C64.1238 88.7356 66.1258 88.1225 68.2189 87.3409C69.3425 86.9212 70.4091 86.4835 71.4207 86.037C71.8337 85.649 72.2253 85.1984 72.5605 84.6792C73.7277 82.8706 73.6846 80.5296 72.6933 78.7361C71.4069 77.8988 69.5437 76.7643 67.126 76.8779C65.259 76.9656 63.7912 77.7635 61.8093 78.8409C58.6619 80.5518 57.0655 82.3577 57.0456 82.3355C57.0385 82.3276 57.2226 82.0777 57.5571 81.6664C57.4017 81.8008 57.2434 81.9374 57.079 82.0785C54.9756 83.8821 53.1916 85.3022 51.9998 86.2299L53.2745 90.2711C53.3359 88.4901 53.3887 87.0901 53.3887 87.0901L58.5998 81.5443Z" fill="#57626F"/>
<path d="M67.7851 88.0748C68.2026 88.0087 69.9473 87.4212 71.4206 86.037C70.409 86.4835 69.3424 86.9213 68.2188 87.3409C66.1257 88.1226 64.1237 88.7356 62.2497 89.2183C60.8181 89.5871 59.3582 88.7066 59.0311 87.2649C59.0291 87.2558 59.027 87.2466 59.0249 87.2375C58.712 85.8538 58.5338 85.1493 58.4701 84.2975C58.4209 83.6388 58.4091 82.6949 58.5997 81.5443L53.3886 87.0902C53.3886 87.0902 53.3358 88.4901 53.2744 90.2711L54.142 93.0215L67.7851 88.0748Z" fill="#4A535E"/>
<path d="M61.8093 78.8408C63.7913 77.7634 65.259 76.9655 67.1261 76.8778C69.5437 76.7642 71.407 77.8988 72.6933 78.736C72.2632 77.9579 71.6557 77.2823 70.8894 76.7989C68.825 75.4969 66.0792 76.1447 65.1785 76.3572C62.5842 76.9694 61.4411 78.306 57.5572 81.6663C57.2227 82.0776 57.0385 82.3275 57.0456 82.3354C57.0656 82.3577 58.662 80.5517 61.8093 78.8408Z" fill="#6C798A"/>
<path d="M69.2303 83.9335C71.2155 82.686 72.0546 80.4493 71.1046 78.9376C70.1547 77.4259 67.7753 77.2117 65.7902 78.4592C63.8051 79.7067 62.9659 81.9435 63.9159 83.4552C64.8659 84.9668 67.2452 85.181 69.2303 83.9335Z" fill="#6C798A"/>
<path d="M68.6559 82.3123C69.9126 81.5226 70.4438 80.1066 69.8424 79.1496C69.2411 78.1926 67.7348 78.0571 66.4781 78.8468C65.2214 79.6365 64.6902 81.0525 65.2915 82.0095C65.8929 82.9665 67.3992 83.1021 68.6559 82.3123Z" fill="#8696AB"/>
<path d="M51.7569 91.8049C53.2534 92.1246 54.5889 90.876 55.111 90.3879C56.0693 89.4919 56.6023 88.4084 56.8983 87.4156C56.9053 87.212 56.9132 86.9863 56.9223 86.7369C56.9477 86.0385 56.9746 85.7751 57.0028 85.4027C57.0748 84.451 57.1327 84.0474 57.3935 83.5911C57.8681 82.7605 58.4645 82.7153 58.6817 82.1257C58.7876 81.9435 58.8578 81.7369 58.8784 81.5133C58.954 80.6914 58.3491 79.9639 57.5273 79.8882C56.8058 79.8218 56.2102 80.2982 55.9585 80.9491C55.9197 81.0493 55.9395 81.2741 55.7803 81.5006C55.7468 81.6513 55.6924 81.8096 55.6063 81.9672C55.2339 82.6496 54.3777 83.1292 54.0138 82.8971C53.8071 82.7652 53.8051 82.4331 53.8028 82.0703C53.8018 81.8973 53.815 81.6569 53.8768 81.3697C53.8999 81.0382 53.979 80.6738 54.1061 80.3771C54.2509 80.0391 54.3793 79.7776 54.4889 79.5609C54.7854 79.2876 54.9869 78.9092 55.0268 78.476C55.1122 77.5475 54.4288 76.7256 53.5004 76.6402C52.5719 76.5547 51.7499 77.2381 51.6645 78.1665C51.6426 78.4041 51.6717 78.6343 51.7417 78.8473C51.7542 79.256 51.8805 79.5748 51.9486 80.0358C52.0695 80.4089 52.1737 80.869 52.1959 81.4021C52.2143 81.8432 52.2396 82.45 51.9811 82.5664C51.7772 82.6582 51.4614 82.416 51.1872 82.1383C51.0069 82.0032 50.8144 81.7795 50.6487 81.504C50.6478 81.5027 50.6464 81.5009 50.6456 81.4998L50.6459 81.4993C50.485 81.2306 50.35 80.9148 50.2798 80.5848C50.2228 80.317 50.2034 80.0907 50.1974 79.8898C50.229 79.7878 50.251 79.6812 50.2611 79.5706C50.2936 79.2182 50.2044 78.8833 50.0302 78.6047C50.0278 78.6004 50.0261 78.5962 50.0236 78.5918C49.7568 78.1209 49.2289 77.7969 48.6692 77.8731C47.8916 77.8932 47.2345 78.4916 47.1614 79.2853C47.0995 79.9579 47.4762 80.5683 48.0553 80.8379C48.3278 81.0955 48.6591 81.3085 48.9409 81.7493C49.5826 82.7534 49.1941 83.733 48.9667 85.7268C48.8768 86.5147 48.788 87.1808 48.7297 87.7673C48.8698 88.3382 49.0831 88.9243 49.3963 89.5037C49.8273 90.3012 50.4944 91.5353 51.7569 91.8049Z" fill="#C1B5FF"/>
<path d="M49.0116 90.7138C49.0687 90.842 50.0964 93.063 52.0389 93.3066C54.4688 93.6114 56.7726 90.6263 56.8525 88.8601C56.8579 88.7418 56.8689 88.2826 56.8984 87.4155C56.6023 88.4084 56.0693 89.4919 55.111 90.3878C54.5889 90.8759 53.2534 92.1246 51.7569 91.8049C50.4944 91.5353 49.8274 90.3011 49.3963 89.5037C49.0831 88.9243 48.8698 88.3381 48.7297 87.7673C48.6103 88.9684 48.619 89.8334 49.0116 90.7138Z" fill="#A594FF"/>
<path d="M51.5802 82.2721C51.4727 82.301 51.3342 82.2483 51.1873 82.1383C51.4614 82.416 51.7773 82.6582 51.9811 82.5664C52.2397 82.4499 52.2143 81.8431 52.1959 81.4021C52.1737 80.869 52.0695 80.4089 51.9486 80.0358C51.9879 80.3018 52.008 80.6148 51.9753 81.0208C51.9377 81.4874 51.881 82.1913 51.5802 82.2721Z" fill="#A594FF"/>
<path d="M50.6486 81.504C50.6477 81.5024 50.6468 81.5009 50.6458 81.4993L50.6455 81.4998C50.6463 81.5009 50.6477 81.5027 50.6486 81.504Z" fill="#A594FF"/>
<path d="M53.8028 82.0703C53.805 82.4331 53.8071 82.7653 54.0137 82.8971C54.3776 83.1292 55.2339 82.6496 55.6063 81.9672C55.6923 81.8096 55.7467 81.6513 55.7802 81.5007C55.7657 81.5213 55.7502 81.542 55.7325 81.5626C54.644 82.4339 54.3248 82.3898 54.0988 82.2801C53.9137 82.1902 53.8461 81.8088 53.8767 81.3698C53.815 81.6569 53.8017 81.8973 53.8028 82.0703Z" fill="#A594FF"/>
<path d="M57.4246 82.3223C57.9906 82.3223 58.4495 81.8634 58.4495 81.2974C58.4495 80.7313 57.9906 80.2725 57.4246 80.2725C56.8585 80.2725 56.3997 80.7313 56.3997 81.2974C56.3997 81.8634 56.8585 82.3223 57.4246 82.3223Z" fill="#D4CCFF"/>
<path d="M57.3551 81.7363C57.6848 81.7363 57.9521 81.469 57.9521 81.1393C57.9521 80.8095 57.6848 80.5422 57.3551 80.5422C57.0254 80.5422 56.7581 80.8095 56.7581 81.1393C56.7581 81.469 57.0254 81.7363 57.3551 81.7363Z" fill="#EAE6FF"/>
<path d="M53.3278 79.5632C54.0156 79.5632 54.5733 79.0055 54.5733 78.3177C54.5733 77.6298 54.0156 77.0721 53.3278 77.0721C52.6399 77.0721 52.0823 77.6298 52.0823 78.3177C52.0823 79.0055 52.6399 79.5632 53.3278 79.5632Z" fill="#D4CCFF"/>
<path d="M53.1489 78.8638C53.5841 78.8638 53.937 78.511 53.937 78.0758C53.937 77.6405 53.5841 77.2877 53.1489 77.2877C52.7137 77.2877 52.3608 77.6405 52.3608 78.0758C52.3608 78.511 52.7137 78.8638 53.1489 78.8638Z" fill="#EAE6FF"/>
<path d="M44.9263 65.4719C45.1834 65.4952 45.4404 65.5185 45.6974 65.5419C45.7747 65.5489 45.8273 65.5401 45.9009 65.5158L46.3443 65.3694C46.4584 65.3317 46.5726 65.2941 46.6867 65.2564L46.5702 65.2411C46.7749 65.366 46.9795 65.4909 47.1841 65.6158C47.3507 65.7175 47.5027 65.4561 47.3367 65.3547C47.1814 65.2599 47.0261 65.1651 46.8707 65.0703C46.8146 65.036 46.7517 64.9827 46.6867 64.9648C46.6172 64.9457 46.5323 64.9893 46.4677 65.0106C46.2598 65.0792 46.0518 65.1479 45.8439 65.2165C45.8145 65.2262 45.7841 65.2345 45.7553 65.2458C45.7089 65.2638 45.7973 65.2538 45.7644 65.2455C45.6923 65.2274 45.6072 65.2313 45.5335 65.2246C45.3311 65.2063 45.1287 65.1879 44.9263 65.1695C44.8449 65.1622 44.7751 65.2443 44.7751 65.3207C44.7751 65.4086 44.8447 65.4645 44.9263 65.4719Z" fill="#FF8222"/>
<path d="M44.8642 65.4454C45.1644 65.3098 45.4646 65.1743 45.7648 65.0387L45.6885 65.0594H45.9511C46.1457 65.0594 46.146 64.757 45.9511 64.757C45.8648 64.757 45.7773 64.7528 45.6911 64.757C45.6283 64.7601 45.5589 64.8017 45.5018 64.8275L44.8852 65.1059C44.8274 65.1321 44.7695 65.1582 44.7116 65.1843C44.6372 65.2179 44.6192 65.3259 44.6574 65.3912C44.7021 65.4677 44.7895 65.4791 44.8642 65.4454Z" fill="#FF8222"/>
<path d="M46.5174 65.6931C46.2366 65.8105 45.9557 65.928 45.6749 66.0454L45.7914 66.0607C45.6554 65.9853 45.5192 65.9102 45.3829 65.8354C45.2321 65.7527 45.0815 65.6565 44.923 65.5892C44.8149 65.5433 44.7046 65.5965 44.6955 65.7197C44.6847 65.8648 44.674 66.0098 44.6632 66.1549C44.653 66.2929 44.7724 66.3518 44.8677 66.4276L45.3018 66.7724C45.3856 66.839 45.4689 66.9287 45.5802 66.9306C45.8925 66.9361 46.2053 66.9306 46.5176 66.9306C46.5281 66.9306 46.5447 66.9339 46.5549 66.9306C46.5382 66.936 46.5012 66.9157 46.5397 66.9337C46.6032 66.9634 46.6726 66.9844 46.7381 67.0094C46.8909 67.0677 47.0427 67.1332 47.1979 67.1847C47.2519 67.2026 47.2961 67.1949 47.3472 67.1756L47.5962 67.0811C47.7414 67.0261 47.8866 66.971 48.0318 66.916C48.1081 66.8871 48.1604 66.814 48.1373 66.73C48.1172 66.6569 48.0281 66.5953 47.9514 66.6244C47.7076 66.7169 47.4639 66.8093 47.2202 66.9017H47.3006C47.1975 66.8624 47.0943 66.823 46.9912 66.7837C46.8655 66.7358 46.7395 66.6771 46.6106 66.6385C46.538 66.6168 46.452 66.6283 46.3773 66.6283H45.5521L45.659 66.6725C45.4122 66.4765 45.1654 66.2804 44.9186 66.0843L44.9629 66.1912C44.9745 66.034 44.9862 65.8769 44.9978 65.7197L44.7703 65.8503C44.884 65.8985 44.992 65.9663 45.1003 66.0254C45.2498 66.1069 45.399 66.1891 45.5481 66.2716C45.5781 66.2882 45.6077 66.3064 45.6385 66.3216C45.7048 66.3543 45.7497 66.3393 45.809 66.3145L46.2388 66.1348C46.3585 66.0847 46.4781 66.0347 46.5978 65.9847C46.6731 65.9532 46.727 65.8846 46.7034 65.7987C46.6839 65.7277 46.5932 65.6614 46.5174 65.6931Z" fill="#FF8222"/>
<path d="M44.5064 65.7425C44.6993 65.7408 44.8976 65.7717 45.0898 65.7868C45.3885 65.8102 45.6873 65.8339 45.986 65.8577C46.0546 65.8632 46.1233 65.8686 46.1919 65.8741L46.0614 65.7993C46.2071 65.994 46.3528 66.1888 46.4985 66.3835C46.5508 66.4534 46.6242 66.4762 46.7054 66.4377C46.9159 66.338 47.1263 66.2383 47.3368 66.1385C47.4105 66.1036 47.4297 65.9978 47.391 65.9317C47.3468 65.8562 47.2582 65.8424 47.1842 65.8775C46.9737 65.9772 46.7632 66.0769 46.5528 66.1767L46.7596 66.2309C46.6535 66.089 46.5473 65.9471 46.4411 65.8053C46.4019 65.7528 46.363 65.7001 46.3234 65.648C46.272 65.5802 46.2121 65.5734 46.1375 65.5674C45.7326 65.5351 45.3278 65.5029 44.9228 65.4713C44.7857 65.4606 44.6441 65.4389 44.5064 65.4401C44.3119 65.4418 44.3114 65.7441 44.5064 65.7425Z" fill="#FF8222"/>
<path d="M49.8184 79.4655C49.8693 78.913 49.397 78.4179 48.7635 78.3596C48.13 78.3013 47.5753 78.7019 47.5244 79.2543C47.4736 79.8068 47.9459 80.3019 48.5794 80.3602C49.2128 80.4185 49.7676 80.0179 49.8184 79.4655Z" fill="#D4CCFF"/>
<path d="M49.1273 79.2268C49.1579 78.8944 48.8737 78.5965 48.4926 78.5614C48.1114 78.5264 47.7776 78.7674 47.747 79.0998C47.7165 79.4322 48.0006 79.7301 48.3818 79.7652C48.763 79.8003 49.0967 79.5592 49.1273 79.2268Z" fill="#EAE6FF"/>
<path d="M54.7431 87.6864C54.9203 85.7612 54.129 84.1144 52.9756 84.0082C51.8223 83.9021 50.7437 85.3767 50.5665 87.302C50.3893 89.2272 51.1806 90.874 52.3339 90.9802C53.4873 91.0863 54.5659 89.6117 54.7431 87.6864Z" fill="#D4CCFF"/>
<path d="M44.7475 64.9375C43.346 64.5924 41.8742 64.7116 40.5816 65.3728C39.5579 65.8965 38.7366 66.769 38.1375 67.7388C37.6916 68.4608 37.3048 69.2706 37.1362 70.1042C37.0319 70.62 36.9875 71.147 36.9251 71.6689C36.917 71.7361 36.9088 71.8033 36.9003 71.8705C36.8965 71.9005 36.8925 71.9306 36.8886 71.9606C36.8728 72.0852 36.9148 71.7784 36.8957 71.9062C36.8702 72.0769 36.8455 72.2475 36.8168 72.4177C36.7562 72.7774 36.6834 73.1349 36.6111 73.4924C36.472 74.1803 36.3231 74.8675 36.1196 75.5396C36.0694 75.7051 36.016 75.8696 35.9588 76.0328C35.9302 76.1144 35.9005 76.1957 35.8698 76.2766C35.8567 76.3114 35.8434 76.3461 35.8298 76.3806C35.8297 76.381 35.7441 76.5961 35.7915 76.4792C35.8328 76.3774 35.7854 76.4932 35.7788 76.5081C35.7585 76.5537 35.7385 76.5994 35.7177 76.6448C35.6864 76.7131 35.6543 76.7811 35.6213 76.8487C35.5378 77.0197 35.4485 77.1879 35.3535 77.3528C35.1867 77.6423 35.001 77.9188 34.8023 78.1871C34.6997 78.3258 34.895 78.0737 34.7865 78.2069C34.7394 78.2648 34.6926 78.3228 34.6445 78.3799C34.5424 78.501 34.4372 78.6195 34.3288 78.7352C34.1301 78.9474 33.9214 79.1503 33.7045 79.3439C33.5979 79.439 33.4893 79.5319 33.3789 79.6226C33.3243 79.6675 33.2684 79.711 33.2136 79.7557C33.1355 79.8194 33.2792 79.7056 33.2783 79.7065C33.2429 79.7405 33.1979 79.7678 33.1588 79.7971C32.3307 80.416 31.4223 80.9228 30.479 81.3432C30.4049 81.3763 30.0503 81.5235 30.3509 81.401C30.2548 81.4402 30.1593 81.4806 30.063 81.5191C29.8818 81.5917 29.6994 81.6614 29.5162 81.7287C29.1728 81.8548 28.8266 81.9758 28.4778 82.0858C27.9881 82.2402 27.4873 82.3446 26.9928 82.4802C26.4356 82.633 25.9014 82.878 25.4031 83.1685C24.2871 83.8189 23.3531 84.7063 22.5692 85.7249C22.1495 86.2702 21.8092 86.8537 21.4728 87.4515C21.4074 87.5676 21.3358 87.6801 21.2581 87.7884C21.2375 87.817 21.2159 87.8448 21.1953 87.8733C21.1331 87.9595 21.3706 87.6527 21.2947 87.7445C21.2814 87.7606 21.2689 87.7773 21.2556 87.7934C21.2075 87.8516 21.1588 87.9092 21.1083 87.9654C20.9966 88.0893 20.8782 88.2072 20.7551 88.3198C20.6894 88.38 20.6222 88.4386 20.554 88.4959C20.4631 88.5721 20.1817 88.7788 20.4923 88.5502C20.1352 88.813 19.7681 89.0557 19.3817 89.2738C18.8951 89.5484 18.3906 89.7904 17.8777 90.0115C17.8475 90.0245 17.8171 90.0374 17.7869 90.0504C17.6612 90.1046 18.0179 89.9543 17.8651 90.0173C17.7861 90.0498 17.7073 90.0825 17.6281 90.1145C17.4743 90.1765 17.3199 90.2369 17.1648 90.2957C16.8238 90.4252 16.4801 90.5474 16.1344 90.6638C14.3746 91.2563 12.5683 91.7078 10.754 92.0981C8.21045 92.6453 5.64057 93.0671 3.06458 93.4283C2.87728 93.4546 2.68994 93.4805 2.50254 93.5061C2.44837 93.5135 2.3942 93.5208 2.34003 93.5282C2.32787 93.5298 2.19224 93.5481 2.2971 93.534C2.40222 93.5199 2.26556 93.5382 2.25352 93.5398C2.19848 93.5471 2.14344 93.5545 2.08839 93.5618C1.69509 93.6138 1.3016 93.6644 0.907964 93.7139C0.438938 93.7728 -0.0229503 94.0888 0.000884389 94.6209C0.0206241 95.0616 0.403707 95.5914 0.907964 95.528C3.7732 95.168 6.63343 94.7524 9.46973 94.2067C11.4647 93.8229 13.4521 93.3786 15.3999 92.7982C16.8 92.3811 18.1869 91.8906 19.5037 91.254C20.38 90.8303 21.2215 90.3231 21.954 89.6779C22.516 89.1829 22.9048 88.5931 23.2701 87.9482C23.4581 87.6162 23.6613 87.2929 23.8823 86.9819C23.9495 86.8874 24.0197 86.7953 24.0885 86.7019C24.146 86.6238 24.0197 86.7893 24.0259 86.783C24.0439 86.7646 24.0588 86.7409 24.075 86.7209C24.1202 86.665 24.1651 86.609 24.2111 86.5538C24.3889 86.3403 24.5759 86.1344 24.7719 85.9374C24.9776 85.7308 25.1933 85.5339 25.4186 85.3487C25.4454 85.3267 25.633 85.1788 25.5316 85.2567C25.4315 85.3336 25.6307 85.1842 25.6531 85.168C25.7824 85.0746 25.9144 84.985 26.049 84.8993C26.3144 84.7301 26.5899 84.5751 26.8745 84.4404C26.9026 84.4271 27.1143 84.3349 26.9646 84.3973C26.8161 84.4591 27.0079 84.3812 27.042 84.3684C27.1495 84.3282 27.2584 84.2922 27.3685 84.2598C27.8485 84.1187 28.3404 84.0239 28.8196 83.8786C29.187 83.7671 29.5508 83.6406 29.9118 83.5097C30.7908 83.191 31.6565 82.822 32.4793 82.3768C33.5012 81.824 34.4711 81.1426 35.3045 80.331C36.332 79.3305 37.0945 78.1302 37.606 76.7936C38.1102 75.4764 38.3909 74.0434 38.606 72.6529C38.6967 72.0667 38.774 71.474 38.8315 70.8833C38.8333 70.8649 38.7984 71.1079 38.8146 71.0095C38.8183 70.9869 38.821 70.964 38.8244 70.9414C38.8321 70.8892 38.8402 70.837 38.849 70.7849C38.8676 70.6743 38.8889 70.5641 38.9139 70.4548C38.9631 70.2393 39.0272 70.0275 39.105 69.8206C39.1195 69.7821 39.1957 69.5969 39.1373 69.7341C39.0786 69.8721 39.1635 69.6773 39.1814 69.6387C39.2164 69.5633 39.2527 69.4885 39.2893 69.4138C39.3614 69.2666 39.4361 69.1208 39.5154 68.9773C39.6123 68.8021 39.7156 68.6305 39.8261 68.4636C39.8882 68.3698 39.9534 68.2786 40.0191 68.1874C40.1354 68.0263 39.9184 68.3092 40.0155 68.1905C40.054 68.1435 40.0918 68.096 40.1311 68.0496C40.3029 67.8464 40.4884 67.6547 40.6877 67.4783C40.731 67.4401 40.7749 67.4025 40.8194 67.3658C40.8191 67.366 40.9002 67.2911 40.9105 67.2923C40.9149 67.2928 40.7613 67.4023 40.8446 67.3445C40.9697 67.2579 41.0924 67.1701 41.223 67.0916C41.3492 67.0157 41.4792 66.9459 41.6121 66.8825C41.6412 66.8686 41.6713 66.8562 41.7002 66.8418C41.7904 66.7969 41.6396 66.8698 41.6338 66.8685C41.6813 66.8789 41.8332 66.7921 41.8843 66.7746C42.0696 66.7112 42.259 66.6595 42.4508 66.6202C42.4901 66.6121 42.5294 66.6046 42.5689 66.5976C42.5971 66.5925 42.7633 66.5657 42.6419 66.5836C42.5307 66.6 42.6568 66.5823 42.6737 66.5808C42.7357 66.5753 42.7974 66.5692 42.8595 66.5651C43.1626 66.5449 43.4618 66.5595 43.7639 66.5857C43.9344 66.6004 43.5562 66.5499 43.7785 66.5876C43.8304 66.5964 43.8823 66.6048 43.9341 66.6145C44.0452 66.6353 44.1555 66.6598 44.2652 66.6868C44.7252 66.8001 45.2702 66.5399 45.381 66.0533C45.4877 65.5848 45.2403 65.0589 44.7475 64.9375Z" fill="#6110D3"/>
<path d="M53.9244 86.9083C54.0339 85.7181 53.5447 84.7001 52.8317 84.6345C52.1187 84.5688 51.4519 85.4805 51.3424 86.6707C51.2328 87.8608 51.722 88.8789 52.435 88.9445C53.148 89.0101 53.8148 88.0985 53.9244 86.9083Z" fill="#EAE6FF"/>
<path d="M44.6472 63.1885L44.6473 63.1884C44.647 63.1883 44.6466 63.1881 44.6462 63.1879C44.5674 63.1353 44.4812 63.0932 44.39 63.0616C44.2042 62.9652 43.9973 62.8462 43.7806 62.7027C43.0094 62.5356 41.9413 62.4925 40.9131 63.0803C40.1226 63.5322 39.6698 64.177 39.4299 64.6164C39.4602 64.6688 39.4895 64.7186 39.5164 64.7633C39.5164 65.4338 40.06 65.9774 40.7306 65.9774C41.4011 65.9774 41.9447 65.4338 41.9447 64.7633C41.9447 64.6645 41.9316 64.5689 41.9092 64.477C41.7097 64.3431 41.5498 64.1451 41.5102 63.9111C41.4537 63.5771 41.6356 63.1326 42.0034 63.0284C42.3987 62.9164 42.7708 63.2648 42.912 63.5736C43.027 63.8251 43.0354 64.1529 42.9273 64.3808C43.0435 64.8787 43.4891 65.25 44.0223 65.25C44.6439 65.25 45.1478 64.7461 45.1478 64.1245C45.1478 63.7341 44.949 63.3904 44.6472 63.1885Z" fill="#C1B5FF"/>
<path d="M40.9131 63.0804C41.9413 62.4926 43.0094 62.5356 43.7806 62.7027C43.2353 62.3415 42.6259 61.8202 42.1193 61.0768C41.3438 59.9389 41.1438 58.7725 41.017 58.033C40.9277 57.5121 40.898 57.0715 40.8879 56.7617C40.491 56.9657 38.7454 57.9162 38.2897 59.7872C37.9181 61.3125 38.5658 62.7842 38.9931 63.7549C39.1467 64.104 39.3015 64.394 39.4299 64.6164C39.6699 64.177 40.1226 63.5322 40.9131 63.0804Z" fill="#57626F"/>
<path d="M42.912 63.5736C42.7708 63.2648 42.3987 62.9164 42.0034 63.0284C41.6356 63.1326 41.4536 63.577 41.5101 63.9111C41.5497 64.1451 41.7096 64.3431 41.9092 64.477C41.8931 64.4108 41.8728 64.3462 41.8464 64.2847C41.8464 64.2846 41.8465 64.2846 41.8465 64.2845C41.9382 64.1096 41.9641 63.8466 42.1583 63.7731C42.3826 63.6883 42.678 63.9144 42.8968 64.1245C42.8968 64.2128 42.908 64.2983 42.9273 64.3808C43.0354 64.1529 43.027 63.8251 42.912 63.5736Z" fill="#A594FF"/>
<path d="M40.3682 62.5158C39.5331 62.2835 39.3477 61.1183 39.304 60.8435C39.0285 59.1127 40.4778 57.5862 40.6723 57.6761C40.8074 57.7386 40.2056 58.5205 40.4189 59.6019C40.6847 60.9501 41.9455 61.3847 41.7365 62.009C41.5965 62.4275 40.8871 62.6602 40.3682 62.5158Z" fill="#6C798A"/>
<path d="M40.1179 61.8564C39.7502 61.6891 39.6686 60.8497 39.6493 60.6517C39.528 59.405 40.1661 58.3054 40.2517 58.3702C40.3112 58.4152 40.0463 58.9784 40.1402 59.7574C40.2572 60.7286 40.8123 61.0416 40.7203 61.4913C40.6586 61.7928 40.3463 61.9604 40.1179 61.8564Z" fill="#8696AB"/>
<path d="M52.8078 67.7079C52.7011 67.4877 52.5943 67.2675 52.4876 67.0473L52.5082 67.1236C52.4809 66.7782 52.4536 66.4328 52.4263 66.0875C52.4198 66.0061 52.3614 65.9363 52.2751 65.9363C52.1983 65.9363 52.1174 66.0056 52.1239 66.0875C52.1444 66.3462 52.1648 66.605 52.1853 66.8638C52.1928 66.9587 52.1857 67.0709 52.2112 67.1638C52.2222 67.2036 52.248 67.2444 52.2659 67.2812L52.3669 67.4896C52.4269 67.6132 52.4868 67.7369 52.5468 67.8605C52.5824 67.934 52.687 67.9537 52.7536 67.9148C52.8286 67.8709 52.8436 67.7817 52.8078 67.7079Z" fill="#FF8222"/>
<path d="M52.6311 67.9226C52.5394 67.7493 52.4477 67.5759 52.356 67.4026C52.2969 67.2908 52.2475 67.1764 52.1625 67.0822C51.8598 66.7466 51.5571 66.4111 51.2544 66.0755C51.1511 65.961 51.0478 65.8465 50.9445 65.732C50.8139 65.5872 50.6006 65.8016 50.7307 65.9458C50.9822 66.2246 51.2337 66.5033 51.4852 66.7821L51.9126 67.256C51.9314 67.2768 51.9623 67.3286 51.9885 67.3402C51.9779 67.3355 51.9608 67.2934 51.9708 67.3205C51.9754 67.3331 51.9839 67.3452 51.9901 67.3571L52.0538 67.4774C52.1592 67.6767 52.2646 67.876 52.3701 68.0752C52.4611 68.2473 52.7222 68.0947 52.6311 67.9226Z" fill="#FF8222"/>
<path d="M53.1192 67.7206C53.0525 67.4972 52.9858 67.2738 52.9191 67.0504L52.9038 67.167C52.9948 66.9587 53.0847 66.75 53.1735 66.5409C53.2383 66.3886 53.3028 66.2361 53.3648 66.0827C53.3976 66.0015 53.4538 65.9027 53.4544 65.8124C53.4549 65.7407 53.4079 65.6685 53.3784 65.6054C53.3275 65.4967 53.2747 65.3889 53.2219 65.2811C53.0774 64.9861 52.9307 64.6921 52.7837 64.3983C52.69 64.211 52.5961 64.0239 52.5019 63.8369C52.4143 63.6631 52.1534 63.8161 52.2408 63.9896C52.5139 64.5313 52.7876 65.073 53.0512 65.6195C53.0779 65.6748 53.1045 65.7302 53.1303 65.7859C53.1382 65.803 53.1458 65.8202 53.1537 65.8373C53.1732 65.8799 53.1476 65.8015 53.1556 65.8428C53.1581 65.8557 53.1533 65.8459 53.1548 65.8303C53.1557 65.8207 53.1675 65.7578 53.1549 65.7844C53.1469 65.8015 53.1428 65.8224 53.1364 65.8403C53.1139 65.9025 53.0889 65.9638 53.064 66.0251C52.9866 66.2156 52.9263 66.3565 52.8469 66.542C52.7864 66.6833 52.7254 66.8244 52.6641 66.9654C52.64 67.0207 52.6139 67.0707 52.6286 67.1344C52.6434 67.199 52.6669 67.2628 52.6859 67.3262C52.7331 67.4845 52.7804 67.6427 52.8276 67.801C52.8831 67.987 53.175 67.9078 53.1192 67.7206Z" fill="#FF8222"/>
<path d="M52.2561 68.1643C52.0605 68.0227 51.8648 67.8811 51.6691 67.7395L51.7233 67.7938C51.5524 67.4923 51.3814 67.1907 51.2105 66.8892C51.1145 66.72 50.8532 66.8721 50.9494 67.0418C51.0767 67.2663 51.204 67.4908 51.3312 67.7153C51.3746 67.7918 51.4142 67.8726 51.4623 67.9464C51.4908 67.9902 51.5466 68.0223 51.589 68.053L51.7725 68.1859C51.8829 68.2657 51.9932 68.3456 52.1035 68.4254C52.1697 68.4733 52.272 68.4368 52.3104 68.3712C52.355 68.2949 52.3225 68.2123 52.2561 68.1643Z" fill="#FF8222"/>
<path d="M52.7271 68.2228C52.5391 67.6735 52.3511 67.1242 52.1631 66.575C52.1366 66.4974 52.1119 66.4189 52.0834 66.342C52.0617 66.2836 52.0188 66.2376 51.9815 66.1882C51.7802 65.9208 51.5788 65.6534 51.3774 65.386C51.214 65.1691 51.0505 64.952 50.8871 64.7351C50.838 64.6699 50.7565 64.6362 50.6802 64.6808C50.6161 64.7184 50.5766 64.8221 50.626 64.8877C50.9723 65.3474 51.3185 65.8071 51.6648 66.2668L51.76 66.3932C51.7699 66.4065 51.7885 66.4444 51.8038 66.4515C51.8166 66.4574 51.7861 66.3995 51.7921 66.4233C51.7948 66.4338 51.7993 66.4442 51.8028 66.4545L51.8449 66.5775L52.176 67.5449C52.2625 67.7977 52.349 68.0504 52.4355 68.3032C52.462 68.3804 52.5393 68.4314 52.6215 68.4088C52.6967 68.3881 52.7537 68.3004 52.7271 68.2228Z" fill="#FF8222"/>
<path d="M54.3219 73.9981C54.9003 73.9981 55.3693 73.45 55.3693 72.7738C55.3693 72.0976 54.9003 71.5494 54.3219 71.5494C53.7434 71.5494 53.2744 72.0976 53.2744 72.7738C53.2744 73.45 53.7434 73.9981 54.3219 73.9981Z" fill="#FF2D77"/>
<path d="M54.5291 73.275C54.8939 73.275 55.1896 72.9421 55.1896 72.5315C55.1896 72.1208 54.8939 71.7878 54.5291 71.7878C54.1644 71.7878 53.8687 72.1208 53.8687 72.5315C53.8687 72.9421 54.1644 73.275 54.5291 73.275Z" fill="#FF5E97"/>
<path d="M54.674 72.7737C54.872 72.7737 55.0325 72.593 55.0325 72.3701C55.0325 72.1472 54.872 71.9664 54.674 71.9664C54.4759 71.9664 54.3154 72.1472 54.3154 72.3701C54.3154 72.593 54.4759 72.7737 54.674 72.7737Z" fill="#FF80AD"/>
<path d="M52.2836 68.983C53.9647 70.5027 56.0196 71.7183 58.2491 72.2051C60.2832 72.6492 62.3593 72.3747 64.4152 72.5741C64.5549 72.5877 64.6941 72.6041 64.8335 72.6202C65.1074 72.6519 64.7279 72.6019 64.8944 72.6282C64.9678 72.6398 65.0414 72.6497 65.1148 72.6613C65.434 72.7115 65.7516 72.7715 66.0671 72.8411C66.6346 72.9663 67.1951 73.1228 67.7455 73.3091C67.996 73.3938 68.2444 73.4848 68.4905 73.5815C68.5631 73.61 68.6351 73.6398 68.7075 73.6686C68.741 73.6819 68.8686 73.7361 68.7048 73.6665C68.8454 73.7262 68.9851 73.788 69.1241 73.8515C69.5935 74.066 70.0532 74.3015 70.5033 74.554C71.3289 75.0172 72.1198 75.5393 72.8893 76.09C73.2438 76.3437 73.5939 76.6034 73.943 76.8645C74.0254 76.9261 74.1078 76.9877 74.1899 77.0496C74.2546 77.0983 74.3193 77.147 74.3834 77.1964C74.2857 77.121 74.4425 77.2432 74.4641 77.2602C74.7299 77.4697 74.9915 77.6846 75.2485 77.9048C76.1152 78.6473 76.9286 79.4508 77.6847 80.3057C77.9967 80.6584 78.2989 81.0197 78.593 81.3875C78.6574 81.4681 78.7215 81.5491 78.7852 81.6303C78.8101 81.662 78.8349 81.6938 78.8597 81.7256L78.8965 81.7728C78.9562 81.8499 78.9451 81.8354 78.863 81.7294C78.9281 81.77 78.992 81.8978 79.0372 81.9573C79.1038 82.045 79.1702 82.1329 79.2364 82.221C79.9447 83.1638 80.6418 84.1049 81.4817 84.9367C83.426 86.8623 85.8126 88.2434 88.3284 89.2807C92.0966 90.8345 96.1712 91.5668 100.209 91.9703C100.848 92.0341 101.488 92.0879 102.128 92.1339C102.602 92.1679 103.056 91.6923 103.035 91.2268C103.012 90.7062 102.636 90.3562 102.128 90.3197C100.882 90.2302 99.639 90.1099 98.4005 89.9483C98.3782 89.9454 98.1017 89.9077 98.3092 89.9363C98.2543 89.9287 98.1993 89.9212 98.1444 89.9135C98.0084 89.8945 97.8725 89.875 97.7366 89.855C97.4442 89.8119 97.152 89.7663 96.8603 89.7183C96.327 89.6304 95.7951 89.534 95.2651 89.428C93.4247 89.0602 91.6032 88.5795 89.8405 87.9323C89.4592 87.7923 89.0816 87.643 88.7062 87.488C88.6545 87.4667 88.5608 87.4111 88.7676 87.5141C88.7181 87.4895 88.6647 87.4703 88.614 87.4483C88.5296 87.4119 88.4455 87.3749 88.3616 87.3376C88.1808 87.2571 88.001 87.1746 87.8222 87.0898C87.1924 86.7913 86.5753 86.4655 85.9763 86.1091C85.4375 85.7886 84.9134 85.4433 84.4088 85.0713C84.3515 85.029 84.2944 84.9864 84.2375 84.9434C84.204 84.9181 84.1714 84.8897 84.1365 84.8664C84.3513 85.0096 84.27 84.9704 84.2203 84.9311C84.1014 84.837 83.9824 84.7433 83.8653 84.6469C83.6502 84.4699 83.4395 84.2875 83.2336 84.0998C82.8508 83.7505 82.4849 83.3826 82.139 82.9967C81.9779 82.817 81.8212 82.6334 81.669 82.4461C81.592 82.3513 81.5177 82.2544 81.4415 82.159C81.6437 82.4122 81.4662 82.1901 81.4245 82.135C81.3687 82.0615 81.3132 81.9877 81.2578 81.9138C80.1421 80.4254 79.0082 78.963 77.6715 77.6629C76.1596 76.1924 74.438 74.8958 72.6701 73.7464C70.8461 72.5607 68.8412 71.6223 66.7161 71.1295C65.5281 70.854 64.3082 70.7127 63.0897 70.6819C62.1168 70.6573 61.1423 70.7013 60.1701 70.6455C59.941 70.6324 59.7123 70.6137 59.4844 70.5874C59.4391 70.5822 59.3904 70.5791 59.3453 70.5706C59.5855 70.6162 59.3486 70.5698 59.3057 70.5631C59.1622 70.5406 59.0191 70.5151 58.8768 70.4863C58.3431 70.3783 57.8196 70.2241 57.3103 70.0318C57.2418 70.006 57.1736 69.9796 57.1056 69.9524C57.1273 69.9611 56.8567 69.8481 56.9632 69.8943C57.0718 69.9412 56.7948 69.8185 56.818 69.829C56.735 69.7915 56.6524 69.753 56.5702 69.7137C56.2952 69.582 56.025 69.4404 55.7601 69.2894C55.3009 69.0276 54.8578 68.7375 54.4333 68.4224C54.3777 68.3811 54.3225 68.3392 54.2674 68.2972C54.4326 68.4231 54.3074 68.3276 54.2665 68.2951C54.1835 68.2291 54.1013 68.1623 54.0198 68.0945C53.8659 67.9663 53.715 67.8345 53.5664 67.7002C53.2145 67.382 52.6264 67.3268 52.2836 67.7002C51.965 68.0473 51.9077 68.6431 52.2836 68.983Z" fill="#6110D3"/>
<path d="M46.0337 52.0557C44.6731 51.2134 42.9592 50.1523 41.6678 50.8278C40.6837 51.3426 40.4341 52.61 40.1671 53.9658C40.1244 54.1825 40.0767 54.4247 40.031 54.6838C39.7833 56.0874 39.594 57.9863 40.5764 59.0138C42.4647 60.9889 48.1787 59.2181 49.5583 56.9703C49.7233 56.7014 49.8269 56.4257 49.8539 56.1487C50.0126 54.5189 47.5262 52.9797 46.0337 52.0557Z" fill="#FF2D77"/>
<path d="M44.7713 52.2425C43.904 51.7056 42.8115 51.0293 41.9884 51.4598C41.3611 51.788 41.202 52.5959 41.0318 53.4601C41.0046 53.5982 40.9741 53.7526 40.945 53.9178C40.7872 54.8124 40.6665 56.0228 41.2927 56.6778C42.4963 57.9367 46.1385 56.808 47.0179 55.3752C47.1231 55.2038 47.1891 55.0281 47.2063 54.8515C47.3075 53.8127 45.7226 52.8315 44.7713 52.2425Z" fill="#FF5E97"/>
<path d="M44.0596 52.3318C43.4755 51.9701 42.7397 51.5146 42.1853 51.8046C41.7627 52.0256 41.6556 52.5697 41.541 53.1518C41.5226 53.2448 41.5021 53.3488 41.4825 53.4601C41.3762 54.0626 41.2949 54.8779 41.7167 55.319C42.5274 56.167 44.9805 55.4067 45.5728 54.4417C45.6436 54.3262 45.6881 54.2079 45.6997 54.089C45.7678 53.3893 44.7004 52.7285 44.0596 52.3318Z" fill="#FF80AD"/>
<path d="M61.5071 54.3071C61.4843 54.188 61.4618 54.0734 61.4406 53.9658C61.1736 52.61 60.924 51.3426 59.9399 50.8278C58.6485 50.1523 56.9346 51.2134 55.574 52.0557C54.0815 52.9797 51.5951 54.5189 51.7538 56.1487C51.7625 56.2382 51.7799 56.3275 51.8041 56.4165C52.4784 58.9067 58.9901 61.1489 61.0313 59.0138C62.105 57.8908 61.7791 55.7276 61.5071 54.3071Z" fill="#FF2D77"/>
<path d="M56.8725 52.2425C57.7398 51.7056 58.8322 51.0293 59.6554 51.4598C60.2827 51.788 60.4418 52.5959 60.612 53.4601C60.6392 53.5982 60.6696 53.7526 60.6988 53.9178C60.8566 54.8124 60.9773 56.0228 60.3511 56.6778C59.1475 57.9367 55.5052 56.808 54.6259 55.3752C54.5207 55.2038 54.4547 55.0281 54.4375 54.8515C54.3363 53.8127 55.9212 52.8315 56.8725 52.2425Z" fill="#FF5E97"/>
<path d="M57.8676 69.5145C58.3343 69.5145 58.7127 69.0722 58.7127 68.5267C58.7127 67.9811 58.3343 67.5388 57.8676 67.5388C57.4008 67.5388 57.0225 67.9811 57.0225 68.5267C57.0225 69.0722 57.4008 69.5145 57.8676 69.5145Z" fill="#FF2D77"/>
<path d="M58.0348 68.9313C58.3291 68.9313 58.5677 68.6626 58.5677 68.3313C58.5677 67.9999 58.3291 67.7313 58.0348 67.7313C57.7405 67.7313 57.502 67.9999 57.502 68.3313C57.502 68.6626 57.7405 68.9313 58.0348 68.9313Z" fill="#FF5E97"/>
<path d="M58.1516 68.5267C58.3113 68.5267 58.4408 68.3809 58.4408 68.2011C58.4408 68.0212 58.3113 67.8754 58.1516 67.8754C57.9918 67.8754 57.8623 68.0212 57.8623 68.2011C57.8623 68.3809 57.9918 68.5267 58.1516 68.5267Z" fill="#FF80AD"/>
<path d="M60.6507 65.5914C61.0353 65.5914 61.3471 65.2269 61.3471 64.7774C61.3471 64.3278 61.0353 63.9634 60.6507 63.9634C60.2661 63.9634 59.9543 64.3278 59.9543 64.7774C59.9543 65.2269 60.2661 65.5914 60.6507 65.5914Z" fill="#FF2D77"/>
<path d="M60.7887 65.1107C61.0312 65.1107 61.2278 64.8894 61.2278 64.6163C61.2278 64.3433 61.0312 64.1219 60.7887 64.1219C60.5462 64.1219 60.3496 64.3433 60.3496 64.6163C60.3496 64.8894 60.5462 65.1107 60.7887 65.1107Z" fill="#FF5E97"/>
<path d="M60.8848 64.7773C61.0165 64.7773 61.1232 64.6572 61.1232 64.509C61.1232 64.3608 61.0165 64.2406 60.8848 64.2406C60.7532 64.2406 60.6465 64.3608 60.6465 64.509C60.6465 64.6572 60.7532 64.7773 60.8848 64.7773Z" fill="#FF80AD"/>
<path d="M57.5843 52.3318C58.1685 51.9701 58.9043 51.5146 59.4587 51.8046C59.8812 52.0256 59.9884 52.5697 60.103 53.1518C60.1213 53.2448 60.1418 53.3488 60.1614 53.4601C60.2677 54.0626 60.349 54.8779 59.9273 55.319C59.1166 56.167 56.6635 55.4067 56.0712 54.4417C56.0003 54.3262 55.9559 54.2079 55.9443 54.089C55.8761 53.3893 56.9436 52.7285 57.5843 52.3318Z" fill="#FF80AD"/>
<path d="M52.8297 54.8607C52.8704 55.0629 52.8922 55.2745 52.8922 55.4925C52.8922 56.9182 51.9685 58.0739 50.829 58.0739C49.6896 58.0739 48.7659 56.9182 48.7659 55.4925C48.7659 55.3781 48.7724 55.2658 48.784 55.1553C48.6092 55.5354 48.5098 55.9682 48.5098 56.4279C48.5098 57.9349 49.5734 59.1565 50.8854 59.1565C52.1975 59.1565 53.2611 57.9349 53.2611 56.4279C53.2611 55.8445 53.1012 55.3043 52.8297 54.8607Z" fill="#E62769"/>
<path d="M50.829 58.0739C51.9685 58.0739 52.8922 56.9182 52.8922 55.4925C52.8922 55.2745 52.8704 55.0629 52.8297 54.8607C52.3999 54.1585 51.6896 53.6992 50.8854 53.6992C49.9736 53.6992 49.1822 54.2896 48.784 55.1554C48.7724 55.2658 48.7659 55.3781 48.7659 55.4925C48.7659 56.9182 49.6896 58.0739 50.829 58.0739Z" fill="#FF2D77"/>
<path d="M63.2138 68.3686C65.4912 69.3882 68.8256 66.5737 69.2595 66.1995C70.1557 65.4266 72.6314 63.2912 72.8131 59.7384C72.889 58.2529 72.5395 56.9957 72.1557 56.082C71.194 55.5331 70.1946 55.4606 69.989 55.4488C69.6878 55.4315 68.9301 55.3973 68.1005 55.7157C67.5151 56.3093 66.7695 57.1479 65.9877 58.303C64.2351 60.8923 64.3174 62.0912 62.3906 64.0801C60.8689 65.6508 59.7874 65.9666 59.1711 66.008C59.3534 66.1474 59.5376 66.3014 59.7204 66.4727C60.4229 66.7067 61.229 67.055 62.06 67.584C62.7841 68.045 62.8163 68.1906 63.2138 68.3686Z" fill="#57626F"/>
<path d="M73.4065 57.2233C73.0565 56.7068 72.6103 56.3414 72.1558 56.082C72.5395 56.9958 72.8891 58.2529 72.8131 59.7385C72.6315 63.2913 70.1557 65.4266 69.2595 66.1996C68.8257 66.5738 65.4913 69.3883 63.2139 68.3687C62.8164 68.1907 62.7842 68.0451 62.0601 67.5841C61.2291 67.055 60.423 66.7068 59.7205 66.4727C60.0506 66.7821 60.3756 67.1455 60.6742 67.5732C61.2258 68.3634 61.5307 69.1469 61.7029 69.7827C62.4426 69.684 62.9772 69.7062 63.0884 69.7102C66.2134 69.8221 69.0442 67.2876 70.4491 66.0298C71.6114 64.9892 73.1508 63.6109 73.7351 61.2979C73.9658 60.3848 74.3957 58.6831 73.4065 57.2233Z" fill="#4A535E"/>
<path d="M62.3906 64.0802C64.3174 62.0913 64.2351 60.8924 65.9877 58.3031C66.7695 57.148 67.5151 56.3094 68.1005 55.7158C67.9215 55.7845 67.7392 55.8693 67.5573 55.9746C66.3257 56.6877 66.2218 57.6856 64.9285 59.9179C63.8544 61.7718 63.3173 62.6987 62.2997 63.5325C60.87 64.7038 59.3694 65.3174 58.562 65.5888C58.7588 65.7099 58.9637 65.8494 59.1712 66.0081C59.7874 65.9667 60.869 65.6509 62.3906 64.0802Z" fill="#6C798A"/>
<path d="M70.2568 62.6925C71.453 60.9128 71.4572 58.8212 70.2662 58.0207C69.0753 57.2202 67.1401 58.0139 65.9439 59.7936C64.7478 61.5732 64.7435 63.6648 65.9345 64.4653C67.1255 65.2658 69.0606 64.4721 70.2568 62.6925Z" fill="#6C798A"/>
<path d="M69.4494 61.4146C70.1976 60.3015 70.2002 58.9933 69.4553 58.4926C68.7104 57.9919 67.5 58.4883 66.7519 59.6014C66.0037 60.7145 66.0011 62.0227 66.746 62.5234C67.4909 63.0241 68.7013 62.5277 69.4494 61.4146Z" fill="#8696AB"/>
<path d="M58.6603 70.4209C59.0277 69.279 59.8158 69.1257 59.9779 68.115C60.1235 67.2074 59.5971 66.6533 59.6361 66.3944C59.2726 66.0646 58.9051 65.7999 58.5621 65.5887C58.379 65.6503 58.2318 65.6941 58.1289 65.723C57.3175 66.0725 56.2703 66.6828 55.5388 67.7243C55.2391 68.151 55.0452 68.5751 54.9159 68.9442C54.9283 69.2895 54.9853 69.508 54.8076 69.8416C54.5443 70.3362 54.1606 70.3421 54.019 70.8274C53.9355 71.1133 53.9426 71.5433 54.2161 71.8132C54.5698 72.1622 55.2422 72.1185 55.5305 71.8132C55.7863 71.5424 55.6038 71.21 55.6899 70.7897C55.6589 70.6305 55.6499 70.4435 55.6957 70.2435C55.8375 69.6244 56.4814 68.9831 57.1146 69.1539C57.6963 69.3108 58.0393 70.0908 57.8241 70.6996C57.7494 70.9109 57.619 71.0683 57.4827 71.1839C57.469 71.2197 57.4537 71.2543 57.4364 71.2874C57.217 71.7085 56.8152 71.685 56.7135 72.0761C56.6233 72.4233 56.83 72.8652 57.1736 73.0619C57.6657 73.3436 58.329 73.0597 58.5537 72.6676C58.6164 72.5581 58.6381 72.4517 58.6376 72.3454C58.2755 71.6579 58.6325 70.5073 58.6603 70.4209Z" fill="#C1B5FF"/>
<path d="M58.129 65.723C58.0215 65.7532 57.9623 65.767 57.9623 65.767C57.1945 65.9449 56.4739 66.0044 55.8593 66.6213C55.5474 66.9343 55.0582 67.5962 54.9392 68.4615C54.9129 68.6525 54.9111 68.808 54.916 68.9442C55.0453 68.5751 55.2392 68.1511 55.5389 67.7244C56.2704 66.6829 57.3176 66.0725 58.129 65.723Z" fill="#A594FF"/>
<path d="M58.5536 71.2217C58.6828 70.8425 59.0422 70.5451 59.868 70.2359C60.5321 69.9873 61.1705 69.8538 61.7028 69.7827C61.5306 69.1469 61.2257 68.3634 60.6741 67.5732C60.3502 67.1091 59.995 66.72 59.636 66.3944C59.597 66.6533 60.1234 67.2075 59.9779 68.1151C59.8157 69.1257 59.0276 69.2791 58.6602 70.4209C58.6324 70.5073 58.2755 71.658 58.6375 72.3455C58.636 72.0036 58.4033 71.6628 58.5536 71.2217Z" fill="#C1B5FF"/>
<path d="M57.8242 70.6996C58.0394 70.0909 57.6964 69.3108 57.1147 69.154C56.4815 68.9832 55.8376 69.6244 55.6958 70.2435C55.6499 70.4435 55.659 70.6305 55.69 70.7898C55.709 70.6971 55.7408 70.6003 55.7935 70.4988C56.0467 70.0111 56.6857 69.5935 57.1079 69.7759C57.521 69.9544 57.6741 70.6843 57.4828 71.184C57.6191 71.0684 57.7495 70.911 57.8242 70.6996Z" fill="#A594FF"/>
<path d="M58.3105 72.4084C58.3419 72.0673 58.0613 71.7627 57.6837 71.728C57.3062 71.6932 56.9747 71.9415 56.9433 72.2825C56.9119 72.6236 57.1925 72.9282 57.5701 72.9629C57.9476 72.9977 58.2791 72.7494 58.3105 72.4084Z" fill="#D4CCFF"/>
<path d="M57.9599 72.2639C57.9797 72.0481 57.8022 71.8553 57.5633 71.8333C57.3244 71.8114 57.1147 71.9685 57.0948 72.1842C57.0749 72.4 57.2525 72.5928 57.4914 72.6148C57.7302 72.6367 57.94 72.4796 57.9599 72.2639Z" fill="#EAE6FF"/>
<path d="M55.5136 71.2469C55.545 70.9058 55.2644 70.6012 54.8869 70.5665C54.5093 70.5317 54.1778 70.78 54.1464 71.121C54.115 71.4621 54.3956 71.7667 54.7732 71.8014C55.1507 71.8362 55.4822 71.5879 55.5136 71.2469Z" fill="#D4CCFF"/>
<path d="M55.163 71.1024C55.1829 70.8866 55.0053 70.6938 54.7664 70.6718C54.5275 70.6499 54.3178 70.807 54.2979 71.0227C54.2781 71.2385 54.4556 71.4313 54.6945 71.4533C54.9334 71.4753 55.1431 71.3182 55.163 71.1024Z" fill="#EAE6FF"/>
<path d="M44.9051 64.2022C44.9487 63.7293 44.6054 63.311 44.1384 63.268C43.6715 63.225 43.2576 63.5736 43.2141 64.0466C43.1705 64.5195 43.5138 64.9378 43.9808 64.9808C44.4478 65.0238 44.8616 64.6752 44.9051 64.2022Z" fill="#D4CCFF"/>
<path d="M44.4729 64.0068C44.5004 63.7076 44.2832 63.4429 43.9878 63.4157C43.6923 63.3885 43.4304 63.6091 43.4029 63.9083C43.3754 64.2076 43.5926 64.4722 43.888 64.4994C44.1835 64.5266 44.4453 64.3061 44.4729 64.0068Z" fill="#EAE6FF"/>
<path d="M41.576 64.841C41.6196 64.3681 41.2763 63.9498 40.8093 63.9068C40.3423 63.8638 39.9285 64.2124 39.885 64.6854C39.8414 65.1583 40.1847 65.5766 40.6517 65.6196C41.1186 65.6626 41.5325 65.314 41.576 64.841Z" fill="#D4CCFF"/>
<path d="M41.1437 64.6456C41.1713 64.3464 40.9541 64.0817 40.6587 64.0545C40.3632 64.0273 40.1013 64.2479 40.0738 64.5471C40.0463 64.8464 40.2635 65.111 40.5589 65.1382C40.8544 65.1654 41.1162 64.9449 41.1437 64.6456Z" fill="#EAE6FF"/>
<path d="M46.4744 72.7737C46.4744 73.3691 46.0614 73.8518 45.552 73.8518C45.0426 73.8518 44.6296 73.3691 44.6296 72.7737C44.6296 72.1783 45.0426 71.6956 45.552 71.6956C46.0614 71.6956 46.4744 72.1783 46.4744 72.7737Z" fill="#FF2D77"/>
<path d="M45.3694 73.2151C45.6907 73.2151 45.951 72.922 45.951 72.5603C45.951 72.1987 45.6907 71.9055 45.3694 71.9055C45.0482 71.9055 44.7878 72.1987 44.7878 72.5603C44.7878 72.922 45.0482 73.2151 45.3694 73.2151Z" fill="#FF5E97"/>
<path d="M45.242 72.7738C45.4164 72.7738 45.5577 72.6146 45.5577 72.4183C45.5577 72.222 45.4164 72.0629 45.242 72.0629C45.0676 72.0629 44.9263 72.222 44.9263 72.4183C44.9263 72.6146 45.0676 72.7738 45.242 72.7738Z" fill="#FF80AD"/>
<path d="M44.5947 70.0456C44.5947 70.4624 44.3057 70.8002 43.9492 70.8002C43.5927 70.8002 43.3037 70.4624 43.3037 70.0456C43.3037 69.6289 43.5927 69.2911 43.9492 69.2911C44.3057 69.2911 44.5947 69.6289 44.5947 70.0456Z" fill="#FF2D77"/>
<path d="M43.8216 70.3545C44.0464 70.3545 44.2286 70.1493 44.2286 69.8963C44.2286 69.6432 44.0464 69.438 43.8216 69.438C43.5968 69.438 43.4146 69.6432 43.4146 69.8963C43.4146 70.1493 43.5968 70.3545 43.8216 70.3545Z" fill="#FF5E97"/>
<path d="M43.7324 70.0456C43.8544 70.0456 43.9534 69.9342 43.9534 69.7968C43.9534 69.6595 43.8544 69.5481 43.7324 69.5481C43.6104 69.5481 43.5115 69.6595 43.5115 69.7968C43.5115 69.9342 43.6104 70.0456 43.7324 70.0456Z" fill="#FF80AD"/>
<path d="M43.5114 67.5389C43.5114 67.876 43.2776 68.1493 42.9892 68.1493C42.7008 68.1493 42.467 67.876 42.467 67.5389C42.467 67.2018 42.7008 66.9286 42.9892 66.9286C43.2776 66.9286 43.5114 67.2018 43.5114 67.5389Z" fill="#FF2D77"/>
<path d="M42.8859 67.7887C43.0677 67.7887 43.2151 67.6228 43.2151 67.418C43.2151 67.2133 43.0677 67.0474 42.8859 67.0474C42.704 67.0474 42.5566 67.2133 42.5566 67.418C42.5566 67.6228 42.704 67.7887 42.8859 67.7887Z" fill="#FF5E97"/>
<path d="M42.8137 67.5389C42.9124 67.5389 42.9925 67.4488 42.9925 67.3377C42.9925 67.2266 42.9124 67.1365 42.8137 67.1365C42.715 67.1365 42.635 67.2266 42.635 67.3377C42.635 67.4488 42.715 67.5389 42.8137 67.5389Z" fill="#FF80AD"/>
</svg>
